<svg xmlns="http://www.w3.org/2000/svg" viewBox="0 0 1200 1200" width="1200" height="1200"><g transform="translate(83.0 392.0) rotate(0.0 187.0 267.5) scale(1.3995696510431284 1.3986343054931034)"><svg width="267.225" height="382.516" viewBox="0 0 267.225 382.516"><path d="m266.225 367.922-117.242 7.154-105.574 6.44-19.003-168.724L1 14.595l85.472-5.218 3.37-.203 5.952-.367 36.401-2.216 35.846-2.182L223.816 1l27.436 232.307z" fill="#fff"/><g fill="#1d0333"><path d="M43.408 382.517a1 1 0 0 1-.993-.888L23.412 212.904.007 14.712a1 1 0 0 1 .933-1.115L223.756.002c.521-.029.992.354 1.054.881l27.436 232.307 14.974 134.622a1.002 1.002 0 0 1-.934 1.108L43.47 382.515l-.062.002zM2.117 15.528 25.4 212.675l18.897 167.786 220.817-13.474-14.856-133.57L222.935 2.056z"/><circle cx="73.79" cy="280.061" r="8.365"/><circle cx="76.487" cy="312.411" r="8.365"/><circle cx="80.378" cy="344.794" r="8.365"/><path d="M92.967 279.197a1 1 0 0 1-.057-1.998l125.719-7.301a1 1 0 0 1 .116 1.996l-125.719 7.301-.059.002zm3.924 31.189a1 1 0 0 1-.057-1.998l125.719-7.301a1 1 0 0 1 .116 1.996L96.95 310.384l-.059.002zm3.89 32.383a1 1 0 0 1-.057-1.998l125.719-7.301c.555-.017 1.024.389 1.056.94a1 1 0 0 1-.94 1.056l-125.719 7.301-.059.002zm84.278-137.015c1.38 2.871 4.079 9.472 2.373 17.16-.013.036-.014.083-.027.119-1.441 6.32-5.293 10.768-9.072 13.868l-39.228 2.4-2.167.132-8.837.534-11.256.695a27.15 27.15 0 0 1-4.322-4.972l-.31-.475-.241-.365c-11.566-18.464 2.857-44.331 4.414-47.049a55.507 55.507 0 0 1 8.989-11.707 56.92 56.92 0 0 1 5.537-4.856c.134-.104.257-.208.391-.3 2.979-2.273 6.068-4.184 9.161-5.809a76.816 76.816 0 0 1 8.569-3.841 86.224 86.224 0 0 1 8.297-2.629c7.706-2.011 13.622-2.423 15.035-2.503 2.598-.586 4.988-.544 7.032-.093 3.765.869 6.356 3.175 6.803 5.602.592 3.256-2.757 6.367-3.272 6.819 1.835.66 8.907 3.425 11.941 10.466 3.674 8.527-.035 19.96-9.81 26.804z"/></g><path d="m139.105 239.301-2.167.132-8.837.534-11.256.695-58.733 3.573-1.562-13.204-2.511-21.276c3.769.295 7.358.645 10.766 1.025a296.047 296.047 0 0 1 23.797 3.607 25.16 25.16 0 0 0 .683 5.171c.043.181.097.373.152.554 1.614 6.081 5.467 11.148 10.745 13.553.319.14.626.28.945.397h.012a16.03 16.03 0 0 0 2.311.709c1.9.459 3.893.597 5.893.449.072-.01.156-.008.228-.018.012 0 .036.001.048-.011a17.484 17.484 0 0 0 1.787-.226h.012c.181-.043.373-.073.553-.116l.469-.095c.024.001.036.001.036-.011 3.464-.789 6.845-2.442 9.806-4.906 2.618-2.163 4.895-4.97 6.577-8.354.206.328.4.657.583.984v.012c.149.231.298.474.446.718.045.085.103.158.149.243.069.11.125.219.182.316.08.134.172.28.24.413A366.79 366.79 0 0 1 138 237.287c.377.679.741 1.346 1.105 2.014z" fill="#f85572"/><path d="M126.741 165.981a40.287 40.287 0 0 1-.548 1.682 54.75 54.75 0 0 1-2.411 5.935 53.546 53.546 0 0 1-6.107 9.957c-3.829 4.915-8.444 8.841-13.561 11.904a56.048 56.048 0 0 1-7.285 3.649c-13.568 5.64-29.451 6.362-43.585 3.917l-1.077-9.091-.882-7.484-2.724-23.075-6.224-52.721c6.813 2.638 12.592 4.614 15.699 1.627 3.868-3.719-1.28-10.411 4.149-18.271 3.797-5.49 9.884-7.331 13.02-8.344 4.077-1.322 7.981-1.598 11.429-1.347 6.049.417 10.703 2.446 12.497 3.296.562.422 1.112.855 1.65 1.277a79.119 79.119 0 0 1 8.486 7.872 57.818 57.818 0 0 1 1.613 1.778 75.696 75.696 0 0 1 10.479 15.398c4.688 9.071 7.338 18.755 8.008 28.288.053.671.082 1.353.112 2.023.052 1.137.069 2.273.05 3.396-.043 6.324-.978 12.514-2.788 18.334z" fill="#1d0333"/><path d="M133.751 212.77c-3.464 10.151-5.193 15.232-10.622 18.976-5.633 3.897-14.523 5.88-22.255 1.958-.945-.477-8.683-4.531-10.26-12.345-.918-4.55.859-7.383 4.378-17.03a223.982 223.982 0 0 0 5.503-17.176s5.33-20.834 4.871-43.012c.002-.009-.094-4.018-.1-5.027-.044-1.668-.077-3.344-.11-5.019 11.727 4.897 23.473 9.798 35.209 14.697.123 2.801.243 6.935.183 11.916-.025 2.02-.065 4.402-.164 7.137-.032.741-.162 4.096-.499 8.508a215.158 215.158 0 0 1-.62 6.687c-.33 3.051-.639 5.862-.969 8.531-.936 7.546-2.063 13.923-4.545 21.199z" fill="#e2957a"/><path d="M103.923 125.121c.596 30.338 33.014 58.659 55.096 53.635 10.279-2.343 16.151-11.389 16.763-12.38 2.778-4.418 3.857-9.085 3.84-14.41-.018-3.428-.489-7.135-1.256-11.223-.83-4.435-2.008-9.309-3.326-14.787-4.05-16.776-6.064-25.173-12.778-31.3-9.548-8.712-26.336-13.576-40.115-6.425-18.392 9.545-18.285 33.691-18.224 36.89z" fill="#e2957a"/><path d="M138.294 191.57c-1.981-1.138-3.79-2.741-6.26-5.669-1.506-1.794-2.239-2.861-7.633-11.331-2.894-4.558-4.347-6.884-4.76-9.902-.236-1.747-.434-5.587.855-6.04 1.925-.681 4.514 7.109 11.508 12.911 2.518 2.097 5.194 3.651 7.879 4.815a215.158 215.158 0 0 1-.62 6.687c-.33 3.049-.639 5.86-.969 8.529z" fill="#1d0333"/><path d="M158.865 155.275c-.362-.514-1.433.361-3.781.292-4.086-.12-5.669-2.91-7.101-2.136-1.63.881-1.909 5.75.585 7.562 1.317.957 2.932.718 3.628.615 4.291-.635 7.375-5.332 6.669-6.333zm-8.619-20.874c-.07.8-.728 1.323-1.161 1.678-1.95 1.601-4.077.774-7.55.344a23.177 23.177 0 0 0-1.698-.166 24.238 24.238 0 0 0-2.775-.032c-.086.013-.171.018-.247.024-3.761.23-5.928 1.235-7.113-.141-.847-.946-.606-2.37-.585-2.497.601-3.219 6.189-5.529 10.903-5.271.222.01.443.028.664.047.733.078 1.457.21 2.164.385 4.018 1.007 7.491 3.527 7.402 5.536a.24.24 0 0 1-.004.093zm26.71-.279c-.07.632-.587 1.039-.941 1.315-1.687 1.366-3.561.479-6.775.177a8.642 8.642 0 0 0-.68-.059 17.965 17.965 0 0 0-2.237-.015 17.88 17.88 0 0 0-.915.06c-2.597.241-4.13.812-5.036-.172-.665-.756-.473-1.89-.456-1.99.43-2.315 4.218-4.025 7.773-4.141.337-.008.673-.007.997.01.768.037 1.54.158 2.282.349 2.613.657 4.948 2.07 5.714 3.44.202.351.302.694.274 1.026z" fill="#fff"/><path d="M158.21 131.572c1.784 3.268 3.913 6.31 6.293 9.169.59.726 1.197 1.431 1.783 2.238.28.426.601.824.771 1.55.05.166.039.412.022.628-.055.228-.125.47-.262.661-.271.399-.644.599-.946.722-.621.233-1.156.267-1.678.292-.521.02-1.018-.01-1.511-.047a30.878 30.878 0 0 1-2.877-.403 1.002 1.002 0 0 1 .355-1.969.787.787 0 0 1 .047.01l.009.002c.891.208 1.783.394 2.664.515.854.118 1.811.174 2.382.002.131-.041.186-.089.181-.08-.011.001.016.052 0-.054-.019-.196-.229-.601-.456-.954-.477-.736-1.053-1.485-1.606-2.241-2.262-3.021-4.285-6.255-5.919-9.657a.421.421 0 0 1 .748-.384zm15.056-12.852c-.611-.314-1.049-.157-4.805-.582-2.814-.319-4.472-.62-6.175.156-.354.161-.796.403-1.148.86-.702.904-1 2.414-.427 3.018.815.855 2.642-.902 6.312-1.156 2.541-.181 4.679.455 6.035.854.372.105.731.229 1.069.35zm-25.087 2.459c-.799 1.486-3.804-.199-9.334.733-1.373.231-6.381 1.076-10.907 4.613-1.752 1.369-3.08 2.867-3.443 2.59-.482-.367 1.308-3.427 1.574-3.88 1.373-2.346 2.153-3.681 3.727-4.601 1.408-.824 1.732-.31 5.312-1.301 1.757-.486 1.682-.611 4.306-1.443 5.08-1.611 5.934-1.325 6.317-1.159 1.78.775 3.105 3.227 2.448 4.448z" fill="#1d0333"/><ellipse cx="136.967" cy="145.448" fill="#bf7960" rx="5.585" ry="8.632" transform="matrix(.1399 -.9902 .9902 .1399 -26.208 260.7265)"/><path d="M171.361 145.179c-.432 3.057 3.05 6.071 7.766 6.737.161.023.332.047.496.049-.018-3.428-.489-7.135-1.256-11.223-3.701.135-6.646 1.893-7.006 4.437z" fill="#bf7960"/><path d="M84.188 113.552c5.899 10.121 20.484 9.313 28.009 8.963 3.71-.173 4.819-.744 5.473-1.182 7.002-4.667 1.459-20.064 7.07-23.057 2.145-1.145 4.764.143 7.176 1.216 2.51 1.121 24.96 10.904 42.882 8.319 4.205-.606 11.674-1.682 16.089-7.82.249-.348 6.05-8.698 1.754-16.576-3.154-5.786-10.426-8.863-17.758-7.227.762-2.634 1.136-4.964 1.261-7.01.383-6.305-1.662-9.92-2.409-11.112a14.778 14.778 0 0 0-1.216-1.661c-8.407-10.008-29.53-9.2-41.683-.334a29.811 29.811 0 0 0-6.341 6.308c-2.901-2.232-6.742-2.408-9.4-.538-2.79 1.963-3.063 5.323-3.092 5.803-6.839-5.82-16.727-5.28-22.223.453-4.51 4.709-5.448 12.301-2.101 18.626-6.917 7.773-8.219 18.699-3.491 26.829z" fill="#1d0333"/><path d="M124.494 62.38c-3.63 3.879-8.254 9.85-11.501 18.088-7.284 18.479-2.511 35.346-.622 41.022l-6.829-3.266c-3.56-9.808-8.699-29.037-.386-47.521a49.24 49.24 0 0 1 3.092-5.803c.534-.612 4.421-4.932 10.268-4.588 2.815.166 4.903 1.342 5.978 2.068z" fill="#f85572"/><path d="M115.649 123.174a50.836 50.836 0 0 0-12.863-8.589c-5.42-2.52-11.708-5.444-14.975-2.785-2.747 2.236-2.407 7.642-1.044 11.168 4.033 10.433 21.395 15.72 27.026 10.19.967-.95 2.879-3.488 1.856-9.984z" fill="#e2957a"/><path d="M103.182 130.119c-.032 0-.065-.002-.099-.005-2.744-.27-5.167-1.4-6.481-3.025-.64-.79-.932-1.611-.846-2.377.188-1.662 2.334-3.297 5.487-3.698-1.201-1.071-2.993-2.233-5.328-2.559a9.732 9.732 0 0 0-3.791.232.995.995 0 0 1-1.219-.717 1 1 0 0 1 .717-1.219 11.65 11.65 0 0 1 4.568-.277c4.36.606 7.104 3.599 8.082 4.856.241.311.277.733.094 1.081a1.028 1.028 0 0 1-.946.53c-3.531-.22-5.6 1.316-5.676 1.994-.018.155.079.483.412.895.761.939 2.505 2.035 5.122 2.293a1 1 0 0 1-.096 1.996z" fill="#1d0333"/><path d="M126.998 84.95c3.053-5.694 7.354-11.599 12.509-11.59 5.419.011 7.283 6.559 12.632 6.358 6.643-.246 8.197-10.475 15.758-12.094 2.767-.586 5.577.133 8.247 1.555.383-6.305-1.662-9.92-2.409-11.112a14.778 14.778 0 0 0-1.216-1.661c-5.132-.648-8.338.475-10.408 1.801-5.226 3.333-4.922 9.005-10.285 10.912-4.869 1.727-7.704-2.022-12.475-1.059-3.769.764-8.412 4.396-12.353 16.89z" fill="#eedcff"/><path d="M141.535 136.424a23.177 23.177 0 0 0-1.698-.166 24.238 24.238 0 0 0-2.775-.032c-.086.013-.171.018-.247.024-3.761.23-5.928 1.235-7.113-.141-.847-.946-.606-2.37-.585-2.497.601-3.219 6.189-5.529 10.903-5.271.222.01.443.028.664.047.804.705 1.437 1.596 1.762 2.649.579 1.879.066 3.808-.911 5.387zm27.705-.811a8.642 8.642 0 0 0-.68-.059 17.965 17.965 0 0 0-2.237-.015 17.88 17.88 0 0 0-.915.06c-2.597.241-4.13.812-5.036-.172-.665-.756-.473-1.89-.456-1.99.43-2.315 4.218-4.025 7.773-4.141.769.69 1.36 1.555 1.673 2.569.391 1.27.285 2.558-.122 3.748z" fill="#1d0333"/><path d="m224.481 234.082-46.149 2.819-39.228 2.4-2.167.132-8.837.534a58.673 58.673 0 0 1-.053-3.301l.007-.251c.008-.741.052-3.621.841-7.556.292-1.474.613-2.721.903-3.705a74.071 74.071 0 0 1 1.138-3.579l.98.027c1.135.031 2.628.06 4.372.108 12.078.296 13.342.391 22.111.584 4.624.103 9.545.215 14.743.322 1.171.02 2.342.052 3.536.073 4.397.085 7.909.158 10.753.224 2.676.062 4.778.12 6.486.178 4.227.164 6.158.373 8.728.814 0 0 3.629.638 7.681 1.933 2.322.745 7.208 2.613 13.825 5.437z" fill="#f85572"/><path d="M106.894 183.928c-.697 4.057-1.616 7.905-2.78 11.531-1.573 5.037-3.6 9.632-6.008 13.725a9.3 9.3 0 0 1-.276.459c-2.18 3.622-4.683 6.84-7.46 9.573-.27.268-.541.535-.823.79l-.111.105A37.267 37.267 0 0 1 82.894 225c-.741.434-1.494.844-2.257 1.229-3.211 1.585-7.315 3.002-11.822 3.895h-.012c-3.87.766-8.064 1.141-12.254.906l-2.511-21.276-.795-6.728-1.077-9.091-.882-7.484-2.724-23.075c13.845-10.521 33.288-19.825 56.387-26.493.107.457.202.914.297 1.359.054.217.096.433.149.65 3.438 16.316 3.768 31.71 1.501 45.036z" fill="#1d0333"/><path d="M110.736 236.259c-.993 0-1.991-.066-2.989-.202-8.687-1.185-16.079-7.35-19.293-16.089a1 1 0 1 1 1.877-.689c2.958 8.042 9.734 13.712 17.686 14.796 9.972 1.369 20.018-4.911 23.886-14.911a1 1 0 1 1 1.865.721c-3.813 9.858-13.191 16.374-23.032 16.374z" fill="#1d0333"/><path d="M58.11 245.233a1 1 0 0 1-.992-.883L32.821 38.586a.998.998 0 0 1 .933-1.115l97.961-5.984 68.407-4.167a.99.99 0 0 1 1.055.881l24.297 205.766a1 1 0 0 1-.933 1.114L58.172 245.232l-.062.001zM34.932 39.402l24.062 203.775 164.371-10.029-7.38-62.536-16.683-141.239z" fill="#1d0333"/></svg></g><g transform="translate(755.0 366.0) rotate(0.0 187.0 267.5) scale(1.3995696510431284 1.3986343054931034)"><svg width="267.225" height="382.516" viewBox="0 0 267.225 382.516"><path d="m266.225 367.922-117.242 7.154-105.574 6.44-19.003-168.724L1 14.595l85.472-5.218 3.37-.203 5.952-.367 36.401-2.216 35.846-2.182L223.816 1l27.436 232.307z" fill="#fff"/><g fill="#1d0333"><path d="M43.408 382.516a1 1 0 0 1-.993-.888L23.412 212.905.007 14.712a1 1 0 0 1 .933-1.115L223.755.002c.519-.037.992.354 1.054.881l27.436 232.307 14.975 134.622a1.001 1.001 0 0 1-.934 1.108L43.469 382.514l-.061.002zM2.118 15.529l23.281 197.146L44.296 380.46l220.818-13.473-14.857-133.57L222.934 2.056z"/><circle cx="73.79" cy="280.061" r="8.365"/><circle cx="76.487" cy="312.411" r="8.365"/><circle cx="80.378" cy="344.794" r="8.365"/><path d="M92.967 279.198a1 1 0 0 1-.057-1.998l125.719-7.301a1.01 1.01 0 0 1 1.056.94 1 1 0 0 1-.94 1.056l-125.719 7.301-.059.002zm3.924 31.188a1 1 0 0 1-.057-1.998l125.719-7.301c.534-.021 1.024.389 1.056.94a1 1 0 0 1-.94 1.056L96.95 310.384l-.059.002zm3.891 32.383a1 1 0 0 1-.057-1.998l125.719-7.301a1.004 1.004 0 0 1 1.056.94 1 1 0 0 1-.94 1.056l-125.719 7.301-.059.002zm18.249-188.198a79.308 79.308 0 0 0-.804-1.934 80.29 80.29 0 0 0-1.613-3.567 94.227 94.227 0 0 0-3.197-6.141s-3.409-6.002-7.857-11.739c-.346-.459-.996-1.334-1.955-2.421-1.397-1.571-2.436-2.427-4.377-4.689-4.005-4.673-8.682-9.887-9.612-16.363-1.007-7.042 2.023-13.364 4.831-17.665 2.214 1.081 21.343 10.81 25.42 32.591.397 2.082-.271 6.091-.681 12.658l-.003.024a153.694 153.694 0 0 0-.281 7.454c-.033 2.831-.015 5.379.02 7.544.024 1.654.068 3.072.109 4.248z"/></g><path d="M208.414 233.664c-1.318.992-2.66 1.959-4.025 2.902-.609.426-1.218.839-1.839 1.24l-10.501.644-14.237.864-.599.043-.407.025-39.934 2.44-20.057 1.217-.395.025-22.847 1.392h-.012l-6.718.413-7.687.47a70.255 70.255 0 0 1-2.487-1.276 75.617 75.617 0 0 1-3.721-2.075 533.682 533.682 0 0 0-5.27-38.745 233.12 233.12 0 0 1 4.658-.29l.036.001a557.24 557.24 0 0 1 18.564-.84.201.201 0 0 1 .119.003c.766-.027 1.507-.042 2.237-.058l.024.001a23.57 23.57 0 0 1 1.292-.036c5.442-.125 10.261-.16 14.384-.13l.012-.012.024.001.514.014c.323-.003.634-.007.944.002l.06.002c.227-.006.442 0 .669.007.132-.008.275-.004.419-.012 2.019.032 3.895.059 5.687.097.466.001.92.013 1.374.026 7.467.158 14.069.459 25.801.71 4.373.084 8.531.163 12.474.212.502.002 1.004.016 1.506.017 2.008.019 3.944.037 5.808.04.024.013.048.013.071.014 0 0 .012-.012.024.001.263.007.514.002.777-.002h.012c2.534.022 4.936.028 7.207.031.526.003 1.052-.007 1.566-.005.621.005 1.231-.002 1.817.002.191.005.371-.002.55-.009h.012l2.63.001c2.08-.015 3.994-.034 5.739-.045 15.176 10.184 20.544 20.588 22.806 27.464.357 1.071.674 2.143.919 3.214z" fill="#b8bfcc"/><path d="m224.415 236.471-21.865 1.335-10.501.644-14.237.864c-.166-.495-.32-.977-.486-1.46a568.92 568.92 0 0 0-5.786-16.512 540.69 540.69 0 0 0-7.158-18.331c-.336-.834-.683-1.68-1.042-2.527-.044-.145-.112-.278-.168-.423.227.006.442.024.669.03h.012c2.59.143 5.109.272 7.544.411a.203.203 0 0 0 .119.003c.167.016.334.021.489.037.048-.011.084.002.119.003h.012c1.838.098 3.616.207 5.359.303h.012c15.623.908 27.746 1.708 35.296 1.891 1.887.052 4.636.092 7.705.63l.098.792z" fill="#cc9af0"/><path d="M168.017 181.168c-6.52-3.023-18.016-7.303-32.582-7.011-3.246.065-29.092.584-32.195 11.298-.522 1.8-1.207 6.674 11.801 20.109 11.263 11.633 34.951 36.1 48.276 29.138 10.147-5.302 12.547-27.932 4.7-53.534z" fill="#1d0333"/><path d="M103.239 185.455c-.129 1.321-.218 4.13 1.202 7.208 1.919 4.159 5.328 6.066 6.44 6.631-.784 1.431-2.314 3.626-4.973 4.83-4.717 2.137-11.088.296-15.619-4.803l12.95-13.866zm66.028-.346 8.268 15.809-8.648 10.333-7.283-16.121a20.019 20.019 0 0 0 4.973-4.83 20.025 20.025 0 0 0 2.69-5.191z" fill="#cc9af0"/><path d="m192.049 238.45-14.237.864-.599.043-.407.025-39.934 2.44-20.057 1.217-.395.025-22.847 1.392c3.403-8.537 6.806-17.086 10.22-25.611v-.012c2.234-5.617 4.468-11.21 6.715-16.826l.039-.107c.116-.284.231-.567.334-.851v-.012c.038-.083.076-.141.114-.236.064-.166.141-.343.205-.52l6.287.029 1.411.003c12.826.042 25.651.096 38.464.149l1.542.007 4.375.013.06.002c.239-.005.454.001.681-.005 2.462.008 4.912.028 7.375.024a.203.203 0 0 0 .119.003c.155.004.311-.003.466.013.012 0 .024.013.023.025.046.061.092.11.139.171.012.012.012.012.011.024a73.33 73.33 0 0 1 1.79 2.297c.288.39.577.757.853 1.147.126.183.254.342.38.524v.012c9.344 12.795 14.226 24.8 16.873 33.731z" fill="#fff"/><path d="M111.195 201.279c-.241 0-.482-.087-.675-.262-6.476-5.921-9.07-10.777-7.931-14.846 2.266-8.098 19.804-11.949 36.18-12.174 12.869-.177 28.718 2.032 30.828 8.846 1.064 3.437-1.333 7.699-7.329 13.033a1 1 0 0 1-1.33-1.494c5.2-4.626 7.534-8.411 6.749-10.947-1.424-4.594-13.32-7.644-28.891-7.438-15.605.215-32.393 3.964-34.281 10.714-.903 3.227 1.571 7.543 7.354 12.83a1 1 0 0 1-.674 1.738z" fill="#1d0333"/><path d="M153.019 212.127c-4.603 5.402-12.964 9.375-21.479 7.45-1.064-.245-9.689-2.33-13.192-9.648-2.033-4.278-.979-7.509.098-17.903a226.208 226.208 0 0 0 1.194-18.318s.086-21.875-5.861-43.663c.002-.012-1.079-3.939-1.337-4.94-.46-1.633-.906-3.276-1.363-4.932 12.797 1.932 25.606 3.865 38.402 5.808a215.435 215.435 0 0 1 3.132 11.706 249.992 249.992 0 0 1 1.604 7.089c.01.014.019.039.015.062.218 1.032.453 2.114.678 3.268a188.793 188.793 0 0 1 1.945 11.734c.004.061.017.135.021.196l.01.014c.139 1.081.276 2.174.421 3.292.471 3.625.926 7.453 1.189 11.532.337 5.018.375 10.453-.179 16.408-1.027 10.824-1.375 16.253-5.298 20.845z" fill="#e59588"/><path d="M103.242 111.802c.967 3.175 5.215 8.852 13.709 20.205 8.056 10.767 12.084 16.151 14.82 18.323 11.822 9.385 30.654 13.717 43.535 6.406 1.611-.914 5.325-3.081 8.128-7.39 4.208-6.468 4.333-14.533 2.48-22.808-.904-4.055-2.274-8.153-3.87-12.134-2.67-6.688-5.965-13.055-8.691-18.337-3.306-6.408-8.455-15.178-16.215-24.778-1.364 4.378-19.829-7.24-31.663-4.472-19.587 4.583-26.68 30.389-22.233 44.985z" fill="#e59588"/><path d="M158.498 174.874c-1.913-.557-3.934-1.551-6.671-3.296-.388-.247-.74-.489-1.126-.748-2.298-1.6-5.226-3.794-9.725-7.946-3.291-3.042-4.956-4.601-6.394-6.66-1.005-1.443-3.399-4.866-2.631-5.7 1.039-1.134 6.586 3.984 15.501 7.111a44.226 44.226 0 0 0 9.405 2.206c.004.061.017.135.021.196l.01.014c.139 1.081.276 2.174.421 3.292.471 3.624.926 7.452 1.189 11.531zm-50.192-58.807c3.382-.964 5.381-4.589 7.159-7.806 4.176-7.574 3.218-15.039 2.765-17.625a83.953 83.953 0 0 0 20.725 2.706c9.883.049 20.799.1 30.88-6.79 3.235-2.212 9.72-7.421 14.131-17.841-.892.379-2.319.902-4.113 1.112-4.713.555-8.678-1.364-12.369-4.157-3.356-2.531-6.488-5.789-9.755-8.548a41.205 41.205 0 0 0-2.969-2.321c-16.448-11.543-46.012-8.354-56.732 6.249-2.095 2.862-5.263 8.597-4.812 18.697-4.082.584-8.5 1.971-10.234 5.363-5.114 9.979 14.765 33.963 25.324 30.961z" fill="#1d0333"/><path d="M137.934 75.035c-.233-2.983-.092-7.017 2.414-8.915 3.342-2.534 8.496.531 13.991 1.387 3.349.525 7.697.37 13.144-1.842-3.356-2.531-6.488-5.789-9.755-8.548a11.404 11.404 0 0 1-1.984 1.671c-6.972 4.598-16.043-.604-20.264 4.097-1.943 2.177-1.913 5.391-1.6 7.7l-13.375 1.65c5.806.934 11.623 1.867 17.429 2.8z" fill="#eedcff"/><path d="m116.42 243.064-22.847 1.392h-.012l-6.718.413-7.687.47a70.255 70.255 0 0 1-2.487-1.276 75.617 75.617 0 0 1-3.721-2.075 120.971 120.971 0 0 1-16.822-11.628l-3.482-29.431c.061-.476.134-.953.206-1.417v-.012c.072-.452.121-.917.193-1.369 9.003.379 18.006.77 27.02 1.162 3.439.154 6.865.296 10.304.451h.012l.012-.012c.096.003.179.017.286.02l.012.012h.012c6.46.261 12.895.546 19.367.82h.012c.036.001.084.002.131.016.096.421.18.854.275 1.299.011.036.022.072.021.108a316.19 316.19 0 0 1 5.913 41.057z" fill="#cc9af0"/><path d="M102.284 206.358s.283 1.43.145 2.981c-.271 2.897-2.589 5.475-3.07 6a5.849 5.849 0 0 0-.557.702l-.012.012c-1.904 2.721-5.416 10.478-11.946 28.815l-7.687.47-21.11 1.284-1.92-16.263-3.482-29.431-.175-1.475-.193-1.667.443-.024c9.517-.503 19.129.335 27.345 1.529 2.429.354 4.725.74 6.866 1.145 1.32.24 2.569.477 3.757.737.024.001.059.014.083.014.666.138 1.295.275 1.914.399h.012c.665.162 1.295.287 1.913.435 5.001 1.142 8.037 2.05 8.037 2.05s-.386.133-.989.32c.079.158.157.363.234.604.144.376.287.835.392 1.363z" fill="#cc9af0"/><path d="M160.352 131.928c-2.859-.825-4.462-2.048-5.483-1.26-.73.563-.66 1.767-.643 2.06.181 3.108 4.414 6.875 8.303 5.984 3.056-.7 5.365-4.154 4.671-5.548-.555-1.116-2.577-.003-6.848-1.236zm-9.965-16.403c-1.962 2.212-4.682 1.216-9.257 1.664-.135.017-.257.025-.392.042-.747.077-1.547.194-2.405.376-3.906.842-5.965 2.28-7.426 1.075-.984-.813-.984-2.285-.976-2.429.071-3.103 4.641-6.109 9.144-6.904.323-.064.642-.103.961-.143a14.583 14.583 0 0 1 2.91-.016c4.255.377 8.209 2.389 8.342 4.459.043.814-.527 1.446-.901 1.876zm26.964-4.995c-1.595 1.744-3.779.968-7.482 1.308l-.429.049c-.576.064-1.169.163-1.814.29-3.158.669-4.824 1.8-5.995.852-.803-.643-.786-1.799-.782-1.919.052-2.189 3.018-4.332 6.253-5.208a11.804 11.804 0 0 1 1.897-.363c.77-.073 1.568-.083 2.342-.011 3.435.287 6.627 1.878 6.725 3.509.042.646-.414 1.149-.715 1.493z" fill="#fff"/><path d="M159.876 110.532c2.319 2.998 4.949 5.712 7.801 8.202.711.634 1.434 1.245 2.151 1.961.351.382.736.73 1.022 1.429.077.158.105.404.123.622-.018.235-.049.488-.155.7-.206.441-.545.7-.828.872-.583.333-1.114.453-1.634.562-.52.104-1.022.154-1.523.196a31.81 31.81 0 0 1-2.954.059 1 1 0 1 1 .04-2.001l.048.002h.009c.928.065 1.855.107 2.762.086.878-.02 1.849-.118 2.399-.386.127-.063.177-.122.175-.116-.009 0 .025.041-.009-.065-.052-.198-.329-.571-.615-.89-.599-.663-1.299-1.323-1.979-1.993-2.76-2.668-5.316-5.59-7.509-8.743a.42.42 0 0 1 .676-.497z" fill="#1d0333"/><path d="M204.39 236.566c-.609.426-1.218.839-1.839 1.24l-10.501.644-14.237.864-.599.043a432.376 432.376 0 0 0-5.794-17.529 556.73 556.73 0 0 0-7.061-18.819c-.359-.859-.694-1.717-1.018-2.526-.044-.145-.112-.278-.168-.423.204-.03.419-.036.635-.054 2.899-.231 5.62-.049 8.175.512.048.001.095.015.143.028h.012a27.21 27.21 0 0 1 4.528 1.416c.071.038.154.064.236.102.685.294 1.37.611 2.053.965 10.701 5.506 19.003 17.903 25.435 33.537z" fill="#cc9af0"/><path d="M114.13 224.2c-.073 0-.147-.008-.222-.024-3.836-.867-9.506-2.895-14.725-7.634-6.594-5.986-9.014-13.221-9.869-17.001-.073-.325.02-.665.248-.907l14.606-15.476a1.001 1.001 0 0 1 1.455 1.373l-14.237 15.084c.901 3.663 3.241 10.09 9.141 15.446 4.897 4.446 10.22 6.35 13.822 7.163a1.001 1.001 0 0 1-.219 1.976zm53.772-11.636a1 1 0 0 1-.539-1.843 26.063 26.063 0 0 0 2.544-1.852c2.63-2.169 4.815-4.848 6.503-7.966l-8.662-17.317a1 1 0 0 1 1.789-.895l8.893 17.778a.999.999 0 0 1-.007.908c-1.843 3.55-4.279 6.589-7.242 9.034a27.748 27.748 0 0 1-2.741 1.994.99.99 0 0 1-.538.159z" fill="#1d0333"/><path d="M116.814 244.038a1 1 0 0 1-.996-.929 325.756 325.756 0 0 0-5.582-41.006l-.161-.805a4.145 4.145 0 0 1-.062-.31c-.039-.161-.072-.315-.104-.464l-.026-.126a.998.998 0 0 1 .764-1.189.998.998 0 0 1 1.189.764l.028.131c.031.145.064.296.104.455.01.038.017.077.021.116.008.061.022.117.036.177l.174.863a327.397 327.397 0 0 1 5.614 41.251.998.998 0 0 1-.999 1.072zm-17.942-27.923c-.023-.025-.059-.038-.082-.062-7.134-5.313-13.705-8.47-18.4-10.344-1.668-.655-4.399-1.747-8.017-2.755a62.679 62.679 0 0 0-4.025-1.007c-3.553-.779-5.616-.943-13.688-2.158-.619-.101-1.226-.189-1.809-.277-.131-.028-.262-.043-.381-.058l-.193-1.667-.03-.204c4.446-.404 9.317-.628 14.54-.568a140.674 140.674 0 0 1 23.51 2.308c.02.132.052.276.072.42h.012c.083.445.178.925.307 1.431.075.301.15.614.249.939a30.19 30.19 0 0 0 1.856 5.084 32.535 32.535 0 0 0 6.079 8.918zm73.947-121.061c-.624-.185-1.147.032-4.854.206-2.881.138-4.598.098-6.18 1.151-.327.223-.724.541-1.014 1.053-.559 1.024-.612 2.585.059 3.1.955.736 2.507-1.329 6.16-2.185 2.521-.586 4.78-.298 6.2-.118.497.063.964.147 1.41.221zm-25.381 7.837c-.563 1.622-3.855.414-9.26 2.244-1.342.454-6.238 2.111-10.215 6.397-1.54 1.659-2.632 3.378-3.041 3.159-.543-.291.761-3.654.955-4.153 1-2.579 1.569-4.046 3.001-5.225 1.282-1.055 1.69-.591 5.127-2.165 1.687-.772 1.591-.885 4.094-2.145 4.844-2.439 5.749-2.29 6.16-2.185 1.915.49 3.642 2.739 3.179 4.073zm29.368 137.49a1 1 0 0 1-.958-.712 471.646 471.646 0 0 0-5.482-17.078.806.806 0 0 1-.024-.084 505.228 505.228 0 0 0-6.986-19.149c-.333-.852-.667-1.681-1.001-2.497a251.041 251.041 0 0 0-1.387-3.481 1 1 0 0 1 1.852-.758c.462 1.129.922 2.294 1.393 3.496.332.812.67 1.65 1.007 2.515a506.242 506.242 0 0 1 7.04 19.299.806.806 0 0 1 .024.084 470.253 470.253 0 0 1 5.481 17.078 1.002 1.002 0 0 1-.959 1.287z" fill="#1d0333"/><ellipse cx="140.151" cy="128.98" fill="#e27469" rx="8.784" ry="5.684" transform="matrix(.9998 -.0191 .0191 .9998 -2.4318 2.6934)"/><path d="M175.265 120.373c.064 3.337 4.755 5.998 10.65 6.164-.904-4.055-2.274-8.153-3.87-12.134-4.041 1.06-6.83 3.356-6.78 5.97z" fill="#e27469"/><path d="M118.924 150.321a30.003 30.003 0 0 1-.697 2.316 80.29 80.29 0 0 0-1.613-3.567 410.128 410.128 0 0 0-1.16-3.444c-2.966-8.739-6-17.343-9.076-25.82 2.529 1.246 6.437 3.674 9.464 8.09 1.654 2.415 2.703 4.926 3.346 7.405l-.003.024c1.532 5.956.604 11.654-.261 14.996z" fill="#1d0333"/><path d="M116.498 108.241a63.034 63.034 0 0 0-16.104-6.844c-6.49-1.741-12.776-3.432-15.497-.38-2.399 2.69-1.184 8.067.755 11.39 5.529 9.474 22.901 12.804 28.802 5.874.886-1.04 2.875-3.913 2.044-10.04z" fill="#e59588"/><path d="M102.408 116.96c-2.491 0-4.767-.73-6.196-2.013-.767-.687-1.19-1.461-1.228-2.239-.08-1.7 1.824-3.691 4.941-4.596-1.383-.892-3.386-1.826-5.811-1.734a9.849 9.849 0 0 0-3.776.848 1 1 0 1 1-.804-1.832 11.886 11.886 0 0 1 4.54-1.016c4.491-.062 7.71 2.466 8.893 3.571a1.001 1.001 0 0 1-.586 1.726c-3.58.347-5.432 2.241-5.398 2.939.008.162.16.481.565.845.918.824 2.849 1.647 5.53 1.48.543-.009 1.026.387 1.06.937a1.001 1.001 0 0 1-.937 1.06c-.267.016-.532.024-.793.024zm38.329.271c-.747.077-1.547.194-2.405.376-3.906.842-5.965 2.28-7.426 1.075-.984-.813-.984-2.285-.976-2.429.071-3.103 4.641-6.109 9.144-6.904 1.871 1.468 2.838 5.09 1.663 7.882zm28.702-5.344c-.576.064-1.169.163-1.814.29-3.158.669-4.824 1.8-5.995.852-.803-.643-.786-1.799-.782-1.919.052-2.189 3.018-4.332 6.253-5.208 1.542 1.06 2.542 3.576 2.338 5.985z" fill="#1d0333"/><path d="M58.045 247.622a1 1 0 0 1-.992-.883L32.756 40.975a.998.998 0 0 1 .933-1.115l97.961-5.984 68.406-4.167a.996.996 0 0 1 1.055.881l24.298 205.765a1 1 0 0 1-.933 1.115L58.107 247.62l-.062.002zM34.867 41.791l18.771 159.021 5.291 44.755 164.369-10.029-24.062-203.776z" fill="#1d0333"/></svg></g><g transform="translate(266.0 281.0) rotate(0.0 309.0 396.5) scale(1.3955536486501745 1.3963701419789718)"><svg width="442.835" height="567.901" viewBox="0 0 442.835 567.901"><path d="m441.835 497.142-158.532 9.674-142.754 8.708-25.695-228.144L83.205 19.382l115.572-7.055 4.558-.275 8.048-.495 49.221-2.997 48.469-2.95L384.491 1l37.098 314.119z" fill="#fff"/><path d="M140.548 516.524a1 1 0 0 1-.993-.888L113.86 287.492 82.211 19.499a1 1 0 0 1 .933-1.115L260.543 7.562 384.429.002a.984.984 0 0 1 1.055.881l37.098 314.118 20.248 182.03a1.001 1.001 0 0 1-.934 1.108L140.61 516.522l-.062.002zM84.322 20.316l31.525 266.946 25.59 227.206 299.288-18.261-20.131-180.979L383.609 2.056z" fill="#1d0333"/><path d="m380.11 307.454-113.695 6.938-102.379 6.245-8.862-75.052-22.698-192.201 82.886-5.06 3.269-.197 5.771-.355 35.3-2.149 34.761-2.116 54.087-3.306 26.606 225.277z" fill="#fff"/><path d="M164.035 321.637a1 1 0 0 1-.992-.883L131.484 53.501a1 1 0 0 1 .933-1.115L348.49 39.203c.516-.034.991.354 1.054.881l31.56 267.253a1 1 0 0 1-.933 1.115l-216.074 13.184-.062.001zM133.594 54.318l31.323 265.264 214.075-13.062-31.324-265.264z" fill="#1d0333"/><path d="M224.508 230.235c3.847-8.403 23.852-6.986 35.73-3.152 5.723 1.847 13.651 4.406 14.906 9.955 1.916 8.474-12.027 22.608-26.333 21.786-15.917-.915-28.188-20.105-24.303-28.589zm-3.679-99.583c.62-.034 1.214-.114 1.782-.241 14.295-2.96 16.461-30.293 38.188-37.837 7.54-2.614 15.42-2.076 22.908.051 7.755 2.196 15.089 6.091 21.176 9.947a45.109 45.109 0 0 1 1.799-10.869c2.829-9.537 7.027-11.766 8.566-18.42 1.483-6.364.162-15.184-4.689-20.088-3.623-3.667-7.752-3.669-13.018-3.009-6.18.781-13.926 2.485-24.232.261-9.906-2.127-17.961-6.964-24.437-10.929-3.09.839-6.621 1.26-10.818.891-2.501-.222-6.063-.793-9.887-.249-2.13 3.288-3.447 6.555-4.581 9.896-2.096 6.087-3.686 12.457-8.769 19.748a55.733 55.733 0 0 1-4.968 6.1c-3.38 3.631-6.225 5.869-8.572 7.602l.001.012c-4.061 2.986-6.661 4.469-8.009 8.923-4.419 14.77 13.104 39.086 27.56 38.211z" fill="#1d0333"/><path d="M282.083 136.635a312.698 312.698 0 0 1-2.711 58.717c-.646 4.595-1.367 9.134-2.151 14.048-.099.592-.186 1.195-.296 1.811a634.505 634.505 0 0 1-8.056 41.082c2.137 1.008 4.287 2.027 6.437 3.035-12.259 8.45-25.945 27.126-30.14 37.947-6.055-12.881-22.797-33.231-34.567-41.861 6.298-3.013 12.478-5.972 12.513-5.986 5.43-14.403 12.194-38.773 8.602-68.342a139.113 139.113 0 0 0-6.587-28.544c3.611-3.498 14.567-13.188 31.608-15.152 11.41-1.316 20.543 1.409 25.348 3.245z" fill="#ffb5a6"/><path d="M322.263 175.879c-.631 1.375-6.513 14.155-19.325 19.068-27.57 10.556-74.608-19.948-81.003-58.959-.668-4.116-5.291-35.242 16.659-50.947 16.468-11.792 38.997-8.62 52.943.861 7.123 4.852 11.268 11.71 16.214 23.155.371.877.756 1.778 1.141 2.702.166.41.344.819.511 1.241.358.854.718 1.744 1.079 2.658 1.037 2.54 2.132 5.281 3.311 8.232 2.108 5.282 4.048 10.118 5.671 14.613 1.83 5.01 3.3 9.573 4.265 13.864 1.93 8.594 1.835 16.043-1.466 23.512z" fill="#ffb5a6"/><path d="M207.845 119.934c3.886 3.653 8.469 7.579 13.411 9.977.393.182.786.364 1.178.534 2.892 1.242 5.898 1.927 8.948 1.688.096.007.203-.011.31-.017a15.31 15.31 0 0 0 2.973-.57 7.884 7.884 0 0 0 1.312-.73c7.789-5.069 2.642-19.52 15.018-28.885 7.653-5.804 14.713-4.072 22.723-5.516 5.819-1.048 12.516-4.838 17.769-10.546 4.192-4.526 7.479-10.282 8.677-16.834 2.059-11.147-2.345-23.83-10.372-30.763a22.757 22.757 0 0 0-4.142-2.861c-9.875-5.288-15.641 1.765-31.152 1.956-3.121.051-6.64-.187-10.674-.864-6.002-1-13.728-3.078-20.284 1.11-3.886 2.475-6.092 6.329-6.767 7.551a18.414 18.414 0 0 0-1.253 2.689c-1.802 4.898-.172 7.788-2.65 13.022.001.024-.01.036-.021.061-3.662 7.656-9.271 5.965-11.279 12.585-1.135 3.748.056 6.28.398 9.468.179 1.738.105 3.668-.743 6.108-1.543 4.393-3.351 3.929-4.381 7.42-2.583 8.746 6.408 19.096 11.001 23.417z" fill="#1d0333"/><path d="M236.694 131.303a66.28 66.28 0 0 0-18.179-8.694c-7.457-2.246-16.107-4.852-19.828-.817-3.128 3.392-1.688 10.301.723 14.595 7.134 12.707 30.503 16.308 36.74 8.134 1.072-1.404 3.067-5.031.544-13.218z" fill="#ffb5a6"/><path d="M221.032 142.295c-3.227 0-6.166-.964-7.97-2.637-.909-.844-1.405-1.775-1.434-2.695-.065-2.171 2.582-4.69 6.808-5.646-1.775-1.289-4.551-2.746-8.015-2.746h-.052c-1.681.007-3.35.352-4.959 1.026a1.001 1.001 0 0 1-.774-1.846 14.94 14.94 0 0 1 5.725-1.181h.061c5.597 0 9.59 3.271 11.05 4.682a1.001 1.001 0 0 1-.615 1.717c-4.548.362-7.265 2.753-7.229 3.934.011.356.308.838.794 1.29 1.2 1.113 3.745 2.255 7.251 2.088.561-.048 1.019.402 1.044.954a1 1 0 0 1-.954 1.044c-.245.011-.489.016-.731.016zm58.34 53.057c-.646 4.595-1.367 9.134-2.151 14.048-.099.592-.186 1.195-.296 1.811-1.753.108-2.991-.207-3.6-.401-3.263-1.018-5.403-4.037-9.682-10.061-2.477-3.491-1.461-2.637-5.097-8.074-2.333-3.487-4.468-6.421-5.95-10.972-.662-2.046-1.166-3.586-.613-3.988 1.346-.983 7.119 5.439 14.738 11.484 2.728 2.172 6.75 4.597 12.651 6.153z" fill="#1d0333"/><path d="M284.477 136.863c.01.179-.004.359-.043.529-.136.797-.713 1.415-1.107 1.868-2.289 2.567-5.361 1.753-10.302 2-.501.027-1.025.068-1.561.121-.548.042-1.13.122-1.724.202-.605.093-1.21.198-1.861.329-4.98 1.062-7.62 2.894-9.499 1.37-1.267-1.056-1.25-2.935-1.236-3.116.08-3.559 4.798-7.012 9.915-8.417a17.916 17.916 0 0 1 3.02-.584c.464-.049.941-.087 1.407-.089.776-.03 1.544-.001 2.313.065 4.859.44 9.377 2.527 10.437 4.838.149.29.225.585.241.884zm34.302-5.839c.014.263-.044.517-.127.749-.19.465-.552.856-.811 1.145-1.862 2.053-4.377 1.376-8.458 1.588-.358.02-.727.052-1.108.085a27.33 27.33 0 0 0-2.884.433c-.355.079-.674.145-1.004.234-3.389.832-5.291 1.941-6.668.832-1.015-.83-1-2.303-1.007-2.446.072-2.613 3.344-5.149 7.13-6.386a14.24 14.24 0 0 1 3.18-.713c.047-.015.095-.017.143-.02a14.84 14.84 0 0 1 3.003-.021c3.824.341 7.405 1.916 8.352 3.696.158.279.244.55.259.824zm-29.693 30.465c-3.791-1.1-5.917-2.726-7.274-1.683-.97.746-.879 2.343-.857 2.732.234 4.125 5.843 9.131 11.006 7.956 4.057-.923 7.127-5.502 6.209-7.353-.734-1.482-3.419-.009-9.084-1.652z" fill="#fff"/><path d="M249.642 128.3c1.24.833 4.521-4.585 10.442-8.123 8.431-5.036 16.643-2.975 17.103-5.594.252-1.435-2.074-3.295-4.038-3.898-.601-.185-1.718-.417-3.968.07-2.714.588-3.869 1.53-6.495 2.813-5.527 2.702-6.954 1.729-9.19 4.131-1.259 1.353-2.098 3.05-2.576 4.015-.988 1.996-1.231 3.283-1.325 3.94-.213 1.501-.345 2.382.047 2.646zm59.762-15.3c-1.871-.52-4.362-.982-7.159-.482-3.544.625-5.384 2.425-6.575 1.437-.959-2.209-.52-3.382-.259-3.863 1.304-2.417 5.951-1.917 9.49-1.537 1.131.118 2.074.293 2.852.502.371.877.756 1.778 1.141 2.702.165.41.343.819.51 1.241z" fill="#1d0333"/><ellipse cx="262.253" cy="156.491" fill="#f99282" rx="12.44" ry="8.049" transform="matrix(.9998 -.0176 .0176 .9998 -2.7144 4.6413)"/><path d="M323.734 152.376c-6.008-.027-10.879-3.143-10.948-7.072-.053-3.003 2.706-5.618 6.682-6.8 1.834 5.009 3.304 9.575 4.266 13.872z" fill="#f99282"/><path d="M212.87 60.875a44.87 44.87 0 0 1 3.559-.135c12.532.044 14.935 5.454 24.19 4.66 10.137-.866 11.795-7.742 22.278-8.4 6.655-.424 12.23 1.963 15.772 3.924-5.917-6.438-11.198-8.255-14.84-8.762-9.069-1.263-12.595 4.926-22.54 3.627-6.593-.86-7.261-3.875-15.903-6.31a45.455 45.455 0 0 0-9.866-1.626c-1.802 4.897-.172 7.788-2.65 13.022z" fill="#eedcff"/><path d="M273.434 140.196a8.14 8.14 0 0 1-.409 1.064c-.501.027-1.025.068-1.561.121-.548.042-1.13.122-1.724.202-.605.093-1.21.198-1.861.329-4.98 1.062-7.62 2.894-9.499 1.37-1.267-1.056-1.25-2.935-1.236-3.116.08-3.559 4.798-7.012 9.915-8.417a17.916 17.916 0 0 1 3.02-.584c.464-.049.941-.087 1.407-.089 2.02 2.557 2.869 6.053 1.948 9.12zm35.95-5.69c-.358.02-.727.052-1.108.085a27.33 27.33 0 0 0-2.884.433c-.355.079-.674.145-1.004.234-3.389.832-5.291 1.941-6.668.832-1.015-.83-1-2.303-1.007-2.446.072-2.613 3.344-5.149 7.13-6.386a14.24 14.24 0 0 1 3.18-.713c1.808 2.223 2.735 5.176 2.361 7.961z" fill="#1d0333"/><path d="M292.535 130.765a71.921 71.921 0 0 0 4.71 5.538 83.913 83.913 0 0 0 5.227 5.049c.904.818 1.827 1.607 2.728 2.517.438.48.917.93 1.249 1.752.092.188.119.468.142.718-.023.267-.056.554-.179.795-.234.501-.627.803-.968 1.007-.7.396-1.363.547-2.014.678a16.57 16.57 0 0 1-1.922.235c-1.265.085-2.513.083-3.754.052a1 1 0 0 1 .05-2l.037.001h.01c1.194.08 2.39.129 3.562.097 1.142-.036 2.388-.15 3.181-.54.185-.096.29-.199.317-.255.021-.062.056-.094-.004-.263-.101-.326-.47-.8-.844-1.218-.782-.858-1.68-1.698-2.552-2.552a85.185 85.185 0 0 1-5.089-5.333 72.487 72.487 0 0 1-4.542-5.801.404.404 0 0 1 .099-.564.41.41 0 0 1 .556.087zm-22.832 23.775a16.405 16.405 0 0 1-11.015-4.222 16.427 16.427 0 0 1-5.475-11.409c-.499-9.104 6.503-16.915 15.606-17.413 4.417-.248 8.649 1.249 11.938 4.196a16.43 16.43 0 0 1 5.474 11.41c.242 4.41-1.249 8.649-4.196 11.938s-6.999 5.232-11.409 5.474c-.307.018-.616.026-.923.026zm.04-31.07a14.444 14.444 0 0 0-10.841 4.834 14.44 14.44 0 0 0-3.69 10.495 14.447 14.447 0 0 0 4.812 10.029 14.482 14.482 0 0 0 10.495 3.689c3.876-.213 7.438-1.922 10.029-4.812s3.901-6.618 3.689-10.494a14.449 14.449 0 0 0-4.812-10.03 14.431 14.431 0 0 0-9.682-3.711z" fill="#1d0333"/><path d="M309.454 143.995c-7.163 0-13.215-6.133-13.645-13.999-.215-3.915.979-7.676 3.362-10.591 2.404-2.941 5.728-4.671 9.358-4.869 7.473-.418 13.888 5.863 14.332 13.979.444 8.116-5.263 15.052-12.721 15.46-.228.013-.457.02-.686.02zm-.235-27.479c-.192 0-.385.006-.579.016-3.062.168-5.875 1.638-7.919 4.139-2.066 2.527-3.102 5.801-2.915 9.216.383 7.015 5.861 12.397 12.227 12.093 6.357-.349 11.217-6.339 10.834-13.354-.374-6.803-5.54-12.11-11.648-12.11z" fill="#1d0333"/><path d="M282.393 129.935a1 1 0 0 1-.571-1.822c1.82-1.263 4.813-2.812 8.738-3.021 2.174-.118 4.33.193 6.414.921a1 1 0 0 1-.658 1.888 14.518 14.518 0 0 0-5.649-.812c-3.456.184-6.098 1.552-7.704 2.666a.994.994 0 0 1-.57.18zm-28.116 11.112a1 1 0 0 1-.508-.139l-18.55-10.952a1.001 1.001 0 0 1 1.017-1.723l18.55 10.952a1.001 1.001 0 0 1-.509 1.862z" fill="#1d0333"/><path d="m380.107 307.452-113.693 6.938-102.374 6.247-8.871-75.049c7.224-.648 15.194-.9 24.021-.9 11.1 0 23.549.406 37.459.933.242.011.483.022.725.044h.077c1.581.055 3.162.121 4.776.176h.011c.253.022.484.022.736.033 1.844.077 3.623.143 5.335.231h.011c6.84.329 12.428.713 16.259.988 2.075 1.339 6.335 3.7 12.197 4.117.384.022.747.044 1.131.055h.011c.33.011.648.011.955.011.198 0 .384-.011.56-.011.219-.011.428-.011.626-.033.154-.011.318-.011.472-.033 3.722-.285 6.85-1.372 9.134-2.437.67-.307 1.262-.626 1.789-.922a20.03 20.03 0 0 0 1.823-1.12c1.592-.176 3.162-.318 4.721-.45 19.454-1.625 35.493-.362 46.79 1.219 22.023 3.052 36.427 5.291 48.766 16.479.538.494 1.076 1.01 1.603 1.515z" fill="#759ef2"/><path d="M224.508 230.235a239.57 239.57 0 0 0-7.569 14.775c-.868 1.846-.985 2.152-1.063 2.452-.734 2.846.713 10.544 36.3 29.129 4.016 1.108 6.138.243 7.159-.392 4.977-3.096 5.442-14.222-.309-27.508-6.607-1.615-15.421-4.645-24.516-10.626a77.221 77.221 0 0 1-10.002-7.83z" fill="#759ef2"/><path d="M259.026 248.691a59.646 59.646 0 0 0 16.117-11.652l2.909 9.415c-7.939 18.147-13.448 26.826-16.526 26.036-2.693-.692-3.525-8.625-2.5-23.799z" fill="#759ef2"/><g fill="#1d0333"><path d="M248.401 274.207a1 1 0 0 1-.522-.147 117.911 117.911 0 0 1-22.714-18.069 117.494 117.494 0 0 1-9.018-10.37 1 1 0 1 1 1.584-1.22 115.313 115.313 0 0 0 8.863 10.192 115.813 115.813 0 0 0 21.35 17.156l9.638-22.236a50.785 50.785 0 0 1-13.542-3.897c-7.35-3.281-13.961-8.405-19.118-14.818a1.001 1.001 0 0 1 1.558-1.254c4.96 6.167 11.313 11.094 18.375 14.246a48.828 48.828 0 0 0 14.287 3.909 1 1 0 0 1 .803 1.39l-10.626 24.517a.999.999 0 0 1-.918.601z"/><path d="M272.199 271.708a1 1 0 0 1-.858-.486l-13.172-22.018a1.001 1.001 0 0 1 .639-1.489c3.08-.69 7.504-2.346 11.082-6.313a19.868 19.868 0 0 0 3.159-4.73.999.999 0 1 1 1.803.863 21.847 21.847 0 0 1-3.478 5.207c-3.438 3.812-7.567 5.677-10.8 6.589l11.522 19.261a55.174 55.174 0 0 0 4.232-13.883c.447-2.719.69-5.5.723-8.268a1 1 0 0 1 1-.988h.012a1 1 0 0 1 .988 1.012 56.792 56.792 0 0 1-.75 8.568 57.278 57.278 0 0 1-5.207 16.119 1.002 1.002 0 0 1-.856.556h-.039z"/><path d="M266.414 315.392a1 1 0 0 1-.997-.938 604.022 604.022 0 0 0-.91-12.461 693.215 693.215 0 0 0-3.06-29.413 6.301 6.301 0 0 1-.071-.508 476.343 476.343 0 0 0-.54-4.125 486.514 486.514 0 0 0-1.588-11.276 324.62 324.62 0 0 0-.799-5.253c-.072-.47-.146-.931-.22-1.391l-.188-1.184a1 1 0 0 1 .836-1.141 1.005 1.005 0 0 1 1.141.836l.187 1.171c.074.465.149.931.221 1.401.275 1.739.551 3.498.802 5.268a492.19 492.19 0 0 1 1.592 11.305c.188 1.375.365 2.758.544 4.152.018.16.034.293.061.438a691.64 691.64 0 0 1 3.077 29.555c.349 4.186.656 8.392.913 12.501a1.002 1.002 0 0 1-.936 1.061l-.065.002z"/><path d="M164.035 321.637a1 1 0 0 1-.992-.883L131.484 53.501a1 1 0 0 1 .876-1.11.989.989 0 0 1 1.11.876l31.447 266.314 214.075-13.062-31.435-266.201a1 1 0 0 1 .876-1.11.993.993 0 0 1 1.11.876l31.56 267.253a1 1 0 0 1-.933 1.115l-216.074 13.184-.061.001zm9.336 58.828c-.095 0-.188-.002-.282-.004a9.897 9.897 0 0 1-6.961-3.11c-1.83-1.933-2.797-4.462-2.724-7.122s1.178-5.132 3.11-6.961c1.934-1.83 4.495-2.773 7.122-2.724a9.897 9.897 0 0 1 6.961 3.11 9.896 9.896 0 0 1 2.724 7.122 9.897 9.897 0 0 1-3.11 6.961 9.89 9.89 0 0 1-6.84 2.728zm-.014-17.925c-2.043 0-3.977.77-5.467 2.18a7.901 7.901 0 0 0-2.485 5.563c-.06 2.126.714 4.147 2.176 5.692s3.438 2.428 5.563 2.485a7.902 7.902 0 0 0 5.692-2.176 7.901 7.901 0 0 0 2.485-5.563 7.903 7.903 0 0 0-2.176-5.692 7.901 7.901 0 0 0-5.788-2.489zm4.832 59.898c-.092 0-.184-.002-.276-.004-5.491-.152-9.836-4.742-9.686-10.233a9.894 9.894 0 0 1 3.111-6.961c1.933-1.83 4.473-2.777 7.121-2.724a9.9 9.9 0 0 1 6.962 3.11 9.906 9.906 0 0 1 2.724 7.122c-.15 5.399-4.589 9.69-9.956 9.69zm-.008-17.926c-2.044 0-3.979.77-5.469 2.18a7.901 7.901 0 0 0-2.485 5.563c-.121 4.389 3.352 8.058 7.74 8.179 4.427.1 8.057-3.352 8.178-7.74a7.908 7.908 0 0 0-2.176-5.692 7.904 7.904 0 0 0-5.564-2.485 5.664 5.664 0 0 0-.224-.005zm8.964 8.209h.01zm-2.934 51.721c-.094 0-.188-.002-.282-.004-2.66-.073-5.133-1.178-6.962-3.11s-2.796-4.462-2.723-7.122c.15-5.491 4.776-9.816 10.232-9.685 5.49.151 9.835 4.741 9.685 10.232a9.9 9.9 0 0 1-3.11 6.962 9.894 9.894 0 0 1-6.84 2.727zm-.01-17.924c-4.29 0-7.838 3.428-7.956 7.742a7.903 7.903 0 0 0 2.176 5.692 7.9 7.9 0 0 0 5.563 2.485c2.133.091 4.148-.714 5.692-2.176a7.9 7.9 0 0 0 2.485-5.563c.121-4.389-3.352-8.058-7.739-8.178l-.221-.002zm19.704-77.163a1 1 0 0 1-.062-1.999l170.046-10.863a1.018 1.018 0 0 1 1.062.935 1.001 1.001 0 0 1-.935 1.062L203.97 369.353a1.455 1.455 0 0 1-.065.002zm3.66 40.744a1 1 0 0 1-.062-1.999l170.047-10.863a1.015 1.015 0 0 1 1.062.935 1 1 0 0 1-.935 1.062L207.63 410.097a1.455 1.455 0 0 1-.065.002zm6.017 42.005a1 1 0 0 1-.062-1.999l170.047-10.863a1.016 1.016 0 0 1 1.062.935 1.001 1.001 0 0 1-.935 1.062l-170.047 10.863-.065.002zM5.526 565.915c-6.578-4.404-7.401-14.711-1.837-23.02l61.28-91.524A69.07 69.07 0 0 0 76.04 460.6a69.015 69.015 0 0 0 12.75 6.721l-61.28 91.524c-5.563 8.309-15.406 11.474-21.984 7.07z"/><circle cx="135.896" cy="376.36" r="106.949"/><path d="M135.894 484.321a107.83 107.83 0 0 1-25.525-3.074c-57.835-14.076-93.436-72.579-79.359-130.414s72.587-93.432 130.414-79.359c57.835 14.076 93.436 72.579 79.359 130.414-11.998 49.291-56.267 82.433-104.889 82.433zm.004-213.922c-47.726 0-91.17 32.524-102.945 80.906-13.815 56.764 21.126 114.183 77.889 127.998a105.926 105.926 0 0 0 25.053 3.018c47.726.004 91.17-32.524 102.945-80.906 13.815-56.764-21.126-114.183-77.889-127.998a105.828 105.828 0 0 0-25.053-3.018z"/></g><path d="m213.883 329.826-60.146 3.653-5.566-47.097c3.061.407 6.141.994 9.205 1.736 24.639 5.997 44.462 21.521 56.507 41.708z" fill="#fff"/><path d="M153.736 334.479a1 1 0 0 1-.992-.883l-5.566-47.097a1 1 0 0 1 1.125-1.108c3.03.403 6.162.993 9.309 1.755 24.121 5.871 44.41 20.847 57.13 42.167a.999.999 0 0 1-.798 1.51l-60.146 3.653a.66.66 0 0 1-.062.003zm-4.42-46.925 5.303 44.869 57.547-3.495c-12.488-20.105-31.968-34.226-55.026-39.839a90.122 90.122 0 0 0-7.824-1.535z" fill="#1d0333"/><path d="m213.883 329.826-60.146 3.653-5.566-47.097c3.061.407 6.141.994 9.205 1.736 24.639 5.997 44.462 21.521 56.507 41.708z" fill="#71757f"/><path d="M224.133 397.84c-11.86 48.733-60.976 78.618-109.71 66.758-48.733-11.86-78.63-60.977-66.77-109.71 11.118-45.669 54.954-74.791 100.517-68.505 3.061.407 6.141.994 9.205 1.736 24.64 5.997 44.463 21.521 56.507 41.708 11.77 19.736 16.114 43.919 10.251 68.013z" fill="#fff"/><path d="M136.068 468.21c-7.286 0-14.62-.874-21.881-2.641-23.83-5.8-43.976-20.53-56.726-41.479s-16.578-45.61-10.779-69.438c5.411-22.229 18.819-41.523 37.753-54.328 18.804-12.718 41.485-18.024 63.872-14.932a90.27 90.27 0 0 1 9.304 1.754c24.121 5.871 44.41 20.847 57.13 42.167 12.41 20.811 16.091 45.23 10.364 68.763-5.799 23.829-20.529 43.973-41.479 56.72-14.566 8.863-30.93 13.414-47.558 13.414zm-.257-181.676c-17.798 0-35.283 5.32-50.255 15.446-18.521 12.526-31.637 31.4-36.931 53.145-11.71 48.117 17.913 96.79 66.034 108.502 23.309 5.671 47.432 1.931 67.927-10.539 20.493-12.47 34.902-32.175 40.575-55.484 5.603-23.02 2.002-46.908-10.138-67.266-12.443-20.855-32.291-35.505-55.885-41.248a88.71 88.71 0 0 0-9.101-1.716 89.286 89.286 0 0 0-12.226-.84z" fill="#1d0333"/><path d="m148.171 286.383 5.566 47.097 60.146-3.653c-4.028-6.809-12.377-18.884-27.25-28.889-15.533-10.451-30.549-13.507-38.462-14.555z" fill="#759ef2"/><path d="M153.736 334.479a1 1 0 0 1-.992-.883l-5.566-47.097a1 1 0 0 1 1.125-1.108c13.861 1.837 27.31 6.926 38.89 14.716 11.163 7.511 20.69 17.61 27.551 29.21a.998.998 0 0 1-.8 1.507l-60.146 3.653a1.326 1.326 0 0 1-.062.002zm-4.42-46.927 5.303 44.871 57.553-3.495c-6.638-10.755-15.632-20.122-26.097-27.161-10.969-7.38-23.654-12.281-36.759-14.215z" fill="#1d0333"/><circle cx="170.257" cy="386.51" fill="#1d0333" r="15.859"/><path d="M170.438 460.353a15.917 15.917 0 0 1-3.78-2.949c-6.029-6.37-5.753-16.404.617-22.421 6.358-6.029 16.392-5.753 22.409.616a15.767 15.767 0 0 1 4.336 10.543m.816-61.03a1 1 0 0 1-.062-1.999l30.39-1.944a1.007 1.007 0 0 1 1.062.935 1.001 1.001 0 0 1-.935 1.062l-30.39 1.944-.065.002zm-85.57 78.468a1 1 0 0 1-.992-.883L88.885 298.392a1 1 0 0 1 .876-1.11.993.993 0 0 1 1.11.876l19.389 164.305a1 1 0 0 1-.994 1.117zm116.528-208.452c-6.906-3.908-11.934-4.018-15.37-3.294-4.688.999-6.554 3.623-10.978 3.294-4.271-.318-6.587-3.074-9.881-5.489-2.415-1.767-5.742-3.645-10.375-4.951 11.1 0 23.549.406 37.459.933.242.011.483.022.725.044 2.81 3.151 5.609 6.313 8.42 9.463z" fill="#1d0333"/></svg></g><g transform="translate(701.0 169.0) rotate(0.0 131.0 87.0) scale(1.3955173001534005 1.39836535911469)"><svg width="187.744" height="124.431" viewBox="0 0 187.744 124.431"><path d="m187.744 0-73.207 82.529-14.535 16.39-22.635 25.512L0 43.605h41.631l34.894 36.458L100.002 53.6l8.871-9.995L147.557 0z" fill="#1d0333"/></svg></g></svg>