<svg enable-background="new 0 0 155.446 103.456" height="104" viewBox="0 0 155.446 103.456" width="156" xmlns="http://www.w3.org/2000/svg"><path d="m11.852 72.356c-1.763 0-3.466-.717-4.701-2.011-1.454-1.523-2.081-3.657-1.681-5.724 3.275-16.91 1.459-35.619-4.983-51.331-1.361-3.322.228-7.118 3.549-8.48 3.319-1.361 7.118.227 8.48 3.548 6.257 15.263 8.706 32.981 7.021 49.805l22.974-3.356c3.558-.519 6.852 1.94 7.371 5.492s-1.94 6.852-5.492 7.371l-31.599 4.615c-.314.048-.628.071-.939.071z" fill="#0699c0"/><path d="m38.898 103.456c-.598 0-1.206-.083-1.81-.258-3.448-.998-5.435-4.602-4.438-8.05 5.73-19.807 6.262-40.885 1.537-60.956-.822-3.494 1.344-6.994 4.838-7.816 3.498-.822 6.993 1.343 7.816 4.838 5.235 22.242 4.646 45.599-1.703 67.547-.822 2.845-3.419 4.695-6.24 4.695z" fill="#0699c0"/><path d="m116.919 68.033c-1.763 0-3.466-.717-4.701-2.012-1.455-1.523-2.081-3.657-1.681-5.725 3.275-16.907 1.46-35.616-4.982-51.329-1.361-3.322.228-7.118 3.549-8.48 3.32-1.362 7.118.227 8.48 3.548 6.258 15.264 8.706 32.982 7.021 49.805l22.974-3.356c3.557-.52 6.852 1.94 7.371 5.492s-1.94 6.852-5.492 7.371l-31.599 4.615c-.314.048-.629.071-.94.071z" fill="#0699c0"/><path d="m143.967 99.133c-.598 0-1.206-.083-1.809-.258-3.449-.997-5.436-4.602-4.438-8.05 5.729-19.807 6.261-40.886 1.536-60.956-.822-3.494 1.344-6.994 4.838-7.816 3.497-.822 6.993 1.343 7.816 4.838 5.235 22.241 4.646 45.598-1.702 67.547-.823 2.844-3.421 4.695-6.241 4.695z" fill="#0699c0"/><path d="m76.4 102.081c-6.197 0-13.073-2.043-16.056-7.895-1.788-3.509-1.655-7.779-1.539-11.547.037-1.19.075-2.42.019-3.146-.734-9.389-1.478-18.777-2.22-28.166l-1.048-13.258c-.514-6.502-1.151-14.594 1.855-22.136 3.185-7.99 10.271-13.941 18.054-15.161 8.32-1.306 16.853 2.84 21.221 10.316 2.455 4.2 3.39 8.896 4.137 13.345 2.34 13.945 3.725 28.224 4.117 42.44.183 6.595.084 14.193-3.414 20.897-4.188 8.022-12.664 13.332-22.677 14.206-.795.068-1.617.105-2.449.105zm-4.473-13.865c.649.456 2.925 1.057 5.794.807 4.298-.375 9.781-2.482 12.28-7.27 2.057-3.939 2.088-9.334 1.945-14.522-.377-13.618-1.703-27.293-3.943-40.647-.57-3.394-1.193-6.633-2.54-8.937-1.666-2.851-4.953-4.507-7.983-4.032-3.285.515-6.496 3.381-7.991 7.132-1.885 4.728-1.4 10.876-.973 16.3l1.048 13.255c.743 9.392 1.486 18.784 2.222 28.177.111 1.434.064 2.954.015 4.563-.047 1.467-.129 4.123.126 5.174z" fill="#0699c0"/><g fill="#33c4e5"><path d="m14.351 44.35c-1.619 0-2.954-1.291-2.997-2.921-.279-10.522-2.428-20.808-6.385-30.567-.622-1.535.117-3.284 1.654-3.907s3.285.117 3.907 1.653c4.229 10.429 6.523 21.418 6.822 32.663.044 1.656-1.263 3.034-2.92 3.078-.026.001-.054.001-.081.001z"/><path d="m45.311 51.182c-.069 0-.14-.002-.21-.007-1.653-.114-2.9-1.547-2.786-3.2.342-4.932-.58-9.909-2.663-14.394-.698-1.502-.046-3.286 1.457-3.984 1.502-.699 3.287-.045 3.984 1.457 2.509 5.4 3.618 11.395 3.208 17.335-.109 1.582-1.427 2.793-2.99 2.793z"/><path d="m23.296 65.473c-1.448 0-2.724-1.052-2.959-2.528-.261-1.636.854-3.174 2.491-3.435l10.336-1.646c1.625-.261 3.174.854 3.435 2.491.261 1.636-.854 3.174-2.491 3.435l-10.336 1.646c-.159.025-.318.037-.476.037z"/><path d="m61.183 42.333c-1.512 0-2.813-1.14-2.979-2.678-.624-5.778-1.332-12.328-.035-18.66 1.521-7.42 5.841-13.457 11.557-16.148 1.499-.707 3.287-.063 3.992 1.436.706 1.499.063 3.286-1.436 3.992-4.015 1.891-7.093 6.348-8.234 11.924-1.109 5.416-.484 11.21.121 16.813.178 1.647-1.013 3.127-2.66 3.305-.109.01-.218.016-.326.016z"/><path d="m86.299 10.794c-.641 0-1.286-.204-1.833-.626-1.101-.854-2.585-1.253-3.957-1.072-1.653.223-3.149-.941-3.364-2.585s.942-3.149 2.585-3.364c2.975-.387 6.033.44 8.406 2.273 1.311 1.014 1.552 2.897.539 4.209-.591.764-1.479 1.165-2.376 1.165z"/><path d="m115.928 34.681c-.007 0-.015 0-.022 0-1.657-.013-2.99-1.366-2.978-3.022.049-6.509-1.553-12.981-4.633-18.718-.784-1.459-.236-3.278 1.224-4.062 1.459-.786 3.278-.236 4.062 1.224 3.556 6.619 5.404 14.089 5.348 21.601-.013 1.648-1.354 2.977-3.001 2.977z"/><path d="m118.857 65.835c-1.325 0-2.829-.341-4.053-1.581-1.763-1.787-1.633-4.229-1.571-5.403l.493-9.286c.088-1.654 1.486-2.925 3.155-2.837 1.654.088 2.925 1.5 2.837 3.155l-.493 9.287c-.015.267-.02.475-.019.635.215-.029.516-.087.932-.194 1.602-.405 3.239.556 3.652 2.16.411 1.604-.556 3.24-2.16 3.652-.579.148-1.607.412-2.773.412zm.392-5.537h.01z"/><path d="m145.73 50.348c-1.658-.001-3.001-1.345-3-3.001.002-4.466-.661-8.896-1.969-13.168-.485-1.585.405-3.263 1.989-3.747 1.584-.486 3.262.405 3.747 1.989 1.483 4.844 2.234 9.866 2.232 14.928 0 1.656-1.343 2.999-2.999 2.999z"/><path d="m82.64 98.708c-1.43 0-2.696-1.027-2.951-2.484-.285-1.632.807-3.187 2.438-3.472 4.991-.873 9.489-4.453 11.46-9.121.645-1.527 2.406-2.24 3.93-1.598 1.527.644 2.242 2.403 1.598 3.93-2.785 6.6-8.898 11.466-15.954 12.699-.175.03-.349.046-.521.046z"/><path d="m38.581 100.855c-1.012 0-2.027-.203-2.979-.625-1.515-.672-2.198-2.443-1.526-3.958.671-1.515 2.445-2.2 3.958-1.526.545.241 1.383.037 1.753-.431 1.031-1.297 2.917-1.516 4.215-.486s1.516 2.917.486 4.215c-1.437 1.811-3.66 2.811-5.907 2.811z"/><path d="m144.631 97.513c-.431 0-.867-.094-1.282-.29-1.497-.709-2.137-2.498-1.427-3.995 1.481-3.127 2.515-6.446 3.071-9.865.267-1.635 1.806-2.745 3.443-2.479 1.635.267 2.745 1.808 2.479 3.443-.647 3.975-1.849 7.833-3.571 11.469-.512 1.083-1.59 1.717-2.713 1.717z"/></g></svg>