<svg xmlns="http://www.w3.org/2000/svg"  viewBox="0 0 48 48" width="96px" height="96px"><path fill="#8ce7f2" d="M43.9,12H12.1C10.4,12,9,13.4,9,15.1v22.8c0,1.7,1.4,3.1,3.1,3.1h18.7l4.2,2.4v3.3c0,0.8,0.9,1.3,1.5,0.9	l3.4-2.1l3.4,2.1c0.7,0.4,1.5-0.1,1.5-0.9v-5.9c1.2-0.4,2.1-1.6,2.1-2.9V15.1C47,13.4,45.6,12,43.9,12z"/><path fill="none" stroke="#18193f" stroke-linecap="round" stroke-width="3" d="M36,22.5c3.6,0,6.5,2.9,6.5,6.5s-2.9,6.5-6.5,6.5s-6.5-2.9-6.5-6.5"/><path fill="none" stroke="#18193f" stroke-linecap="round" stroke-linejoin="round" stroke-width="3" d="M31.5,33.8v8.8c0,0.8,0.9,1.3,1.6,0.8l2.9-2l2.9,2c0.7,0.4,1.6,0,1.6-0.8v-8.8"/><path fill="none" stroke="#18193f" stroke-linecap="round" stroke-linejoin="round" stroke-width="3" d="M26.1,36.5H8.5c-1.7,0-3-1.3-3-3v-22c0-1.7,1.3-3,3-3h31c1.7,0,3,1.3,3,3v7.2"/><line x1="11.5" x2="36.4" y1="15.5" y2="15.5" fill="none" stroke="#18193f" stroke-linecap="round" stroke-width="3"/><line x1="12.1" x2="23.5" y1="22.5" y2="22.5" fill="none" stroke="#18193f" stroke-linecap="round" stroke-width="3"/><line x1="12.1" x2="23.5" y1="29.5" y2="29.5" fill="none" stroke="#18193f" stroke-linecap="round" stroke-width="3"/></svg>