<svg xmlns="http://www.w3.org/2000/svg"  viewBox="0 0 48 48" width="96px" height="96px"><path fill="#9fa8da" d="M14.1,32.6h-1c-1.1,0-2.1,0.9-2.1,2.1v9.3c0,1.1,0.9,2.1,2.1,2.1h29.8c1.1,0,2.1-0.9,2.1-2.1v-9.3	c0-1.1-0.9-2.1-2.1-2.1h-1V12.1c0-1.1-0.9-2.1-2.1-2.1H16.2c-1.1,0-2.1,0.9-2.1,2.1V32.6"/><path fill="#18193f" d="M18,23h-2c-0.6,0-1-0.4-1-1v-2c0-0.6,0.4-1,1-1h2c0.6,0,1,0.4,1,1v2C19,22.6,18.6,23,18,23z"/><path fill="#18193f" d="M19,29v-2c0-0.6-0.4-1-1-1h-2c-0.6,0-1,0.4-1,1v2c0,0.6,0.4,1,1,1h2C18.6,30,19,29.6,19,29z"/><path fill="#18193f" d="M16,36v-2c0-0.6-0.4-1-1-1h-2c-0.6,0-1,0.4-1,1v2c0,0.6,0.4,1,1,1h2C15.6,37,16,36.6,16,36z"/><path fill="#18193f" d="M25,23h-2c-0.6,0-1-0.4-1-1v-2c0-0.6,0.4-1,1-1h2c0.6,0,1,0.4,1,1v2C26,22.6,25.6,23,25,23z"/><path fill="#18193f" d="M26,29v-2c0-0.6-0.4-1-1-1h-2c-0.6,0-1,0.4-1,1v2c0,0.6,0.4,1,1,1h2C25.6,30,26,29.6,26,29z"/><path fill="#18193f" d="M33,22v-2c0-0.6-0.4-1-1-1h-2c-0.6,0-1,0.4-1,1v2c0,0.6,0.4,1,1,1h2C32.6,23,33,22.6,33,22z"/><path fill="#18193f" d="M18,16h-2c-0.6,0-1-0.4-1-1v-2c0-0.6,0.4-1,1-1h2c0.6,0,1,0.4,1,1v2C19,15.6,18.6,16,18,16z"/><path fill="#18193f" d="M25,16h-2c-0.6,0-1-0.4-1-1v-2c0-0.6,0.4-1,1-1h2c0.6,0,1,0.4,1,1v2C26,15.6,25.6,16,25,16z"/><path fill="#18193f" d="M33,15v-2c0-0.6-0.4-1-1-1h-2c-0.6,0-1,0.4-1,1v2c0,0.6,0.4,1,1,1h2C32.6,16,33,15.6,33,15z"/><line x1="8.5" x2="39.5" y1="6.5" y2="6.5" fill="none" stroke="#18193f" stroke-linecap="round" stroke-linejoin="round" stroke-width="3"/><path fill="none" stroke="#18193f" stroke-linecap="round" stroke-linejoin="round" stroke-width="3" d="M37.5,16V6.5"/><path fill="none" stroke="#18193f" stroke-linecap="round" stroke-linejoin="round" stroke-width="3" d="M10.5,28.5h-1c-1.1,0-2,0.9-2,2v9c0,1.1,0.9,2,2,2h11v-7h3.7"/><path fill="none" stroke="#18193f" stroke-linecap="round" stroke-linejoin="round" stroke-width="3" d="M10.5,19.9v8.6"/><path fill="none" stroke="#18193f" stroke-linecap="round" stroke-linejoin="round" stroke-width="3" d="M10.5,6.5v6.7"/><line x1="20.5" x2="23.8" y1="41.5" y2="41.5" fill="none" stroke="#18193f" stroke-linecap="round" stroke-linejoin="round" stroke-width="3"/><path fill="none" stroke="#18193f" stroke-linecap="round" stroke-linejoin="round" stroke-width="3" d="M35,24c2.1,0,3.9,1.7,3.9,3.9s-1.7,3.9-3.9,3.9c-2.1,0-3.9-1.7-3.9-3.9"/><path fill="none" stroke="#18193f" stroke-width="3" d="M42.3,38.6c0-1.4-1.1-2.5-2.4-2.5h-9.7c-1.4,0-2.4,1.1-2.4,2.5v0c0,2.3,3,4.5,7.3,4.5S42.3,40.9,42.3,38.6	L42.3,38.6z"/></svg>