<svg xmlns="http://www.w3.org/2000/svg"  viewBox="0 0 256 256" width="96px" height="96px"><rect width="225.6" height="23.47" x="15.2" y="172.57" fill="#F9D335"/><rect width="18.852" height="23.468" x="221.947" y="172.573" fill="#F2C300"/><rect width="19.387" height="23.466" x="15.2" y="172.574" fill="#F9E27D"/><rect width="205.6" height="43.47" x="25.2" y="196.04" fill="#F9D335"/><rect width="18.852" height="43.468" x="211.947" y="196.043" fill="#F2C300"/><rect width="19.387" height="43.466" x="25.2" y="196.044" fill="#F9E27D"/><g><path fill="#B76C6C" d="M116.745,172.57H32.433c-9.061,0-16.406-7.345-16.406-16.406V94.478c0-9.061,7.345-16.406,16.406-16.406 h84.312c9.061,0,16.406,7.345,16.406,16.406v61.686C133.151,165.225,125.806,172.57,116.745,172.57z"/><path fill="#B76C6C" d="M133.151,116.462H16.028V94.478c0-9.061,7.345-16.406,16.406-16.406h84.312 c9.061,0,16.406,7.345,16.406,16.406V116.462z"/><path fill="#F9D335" d="M43.644,130.892L43.644,130.892c-3.624,0-6.562-2.938-6.562-6.562v-15.75 c0-3.624,2.938-6.562,6.562-6.562h0c3.624,0,6.562,2.938,6.562,6.562v15.75C50.206,127.954,47.268,130.892,43.644,130.892z"/><path fill="#F9D335" d="M105.535,130.892L105.535,130.892c-3.624,0-6.562-2.938-6.562-6.562v-15.75 c0-3.624,2.938-6.562,6.562-6.562h0c3.624,0,6.562,2.938,6.562,6.562v15.75C112.097,127.954,109.159,130.892,105.535,130.892z"/><path fill="#965959" d="M133.151,94.477v61.685c0,9.058-7.349,16.407-16.407,16.407h-15.164c9.058,0,16.407-7.349,16.407-16.407 V94.477c0-9.058-7.349-16.407-16.407-16.407h15.164C125.802,78.07,133.151,85.42,133.151,94.477z"/><path fill="#965959" d="M133.151,94.477v21.987h-15.164V94.477c0-9.058-7.349-16.407-16.407-16.407h15.164 C125.802,78.07,133.151,85.42,133.151,94.477z"/><path fill="#C98585" d="M47.598,172.57H32.435c-9.058,0-16.407-7.349-16.407-16.407V94.477c0-9.058,7.349-16.407,16.407-16.407 h15.164c-9.058,0-16.407,7.349-16.407,16.407v61.685C31.191,165.22,38.541,172.57,47.598,172.57z"/><path fill="#C98585" d="M47.598,78.07c-9.058,0-16.407,7.349-16.407,16.407v21.987H16.028V94.477 c0-9.058,7.349-16.407,16.407-16.407H47.598z"/><rect width="69.215" height="17.342" x="157.834" y="155.228" fill="#FFE2E2"/><rect width="69.215" height="17.342" x="166.219" y="137.885" fill="#5FCDFF"/><rect width="69.215" height="17.342" x="157.834" y="120.543" fill="#F9D335"/><rect width="69.215" height="17.342" x="170.757" y="103.201" fill="#5FCDFF"/><rect width="69.215" height="17.342" x="162.027" y="85.858" fill="#FFE2E2"/><rect width="69.215" height="17.342" x="153.641" y="68.516" fill="#F9D335"/><rect width="69.215" height="17.342" x="170.757" y="51.174" fill="#5FCDFF"/><rect width="69.215" height="17.342" x="153.641" y="33.832" fill="#FFE2E2"/><rect width="69.215" height="17.342" x="170.757" y="16.49" fill="#5FCDFF"/></g><path fill="#5F266D" d="M251.073,168.57c-7.391,0-12.321,0-20.023,0v-9.342h4.385c2.209,0,4-1.791,4-4v-17.342c0-2.209-1.791-4-4-4 h-4.385v-9.342h8.923c2.209,0,4-1.791,4-4v-17.342c0-2.209-1.791-4-4-4h-4.73V85.858c0-2.209-1.791-4-4-4h-4.386v-9.342h13.116 c2.209,0,4-1.791,4-4V51.174c0-2.209-1.791-4-4-4h-13.116v-9.342h13.116c2.209,0,4-1.791,4-4V16.49c0-2.209-1.791-4-4-4h-69.216 c-2.209,0-4,1.791-4,4v13.342h-13.115c-2.209,0-4,1.791-4,4v17.342c0,2.209,1.791,4,4,4h13.115v9.342h-13.115c-2.209,0-4,1.791-4,4 v17.342c0,2.209,1.791,4,4,4h4.386v13.342c0,2.209,1.791,4,4,4h4.729v9.342h-8.923c-2.209,0-4,1.791-4,4v17.342 c0,2.209,1.791,4,4,4h4.386v9.342h-4.386c-2.209,0-4,1.791-4,4v13.342H132.91c2.648-3.442,4.241-7.737,4.241-12.406 c0-7.117,0-55.776,0-61.686v-0.001c0-11.252-9.154-20.407-20.407-20.407h-16.269v-9.122c0-5.823-4.737-10.561-10.561-10.561H59.264 c-5.823,0-10.561,4.737-10.561,10.561v9.122H32.435c-11.252,0-20.407,9.154-20.407,20.407v0.001c0,5.891,0,54.569,0,61.686 c0,4.669,1.593,8.963,4.241,12.406c-4.487,0-6.965,0-11.342,0c-2.209,0-4,1.791-4,4s1.791,4,4,4H11.2v19.47c0,2.209,1.791,4,4,4h6 v39.47c0,2.209,1.791,4,4,4h205.6c2.209,0,4-1.791,4-4v-39.47h6c2.209,0,4-1.791,4-4v-19.47h6.273c2.209,0,4-1.791,4-4 S253.282,168.57,251.073,168.57z M231.434,141.885v9.342c-6.775,0-54.675,0-61.215,0v-9.342 C176.76,141.885,224.657,141.885,231.434,141.885z M235.972,107.201v9.342c-6.758,0-53.722,0-61.216,0v-9.342 C179.493,107.201,226.099,107.201,235.972,107.201z M235.972,55.174v9.342c-5.343,0-55.891,0-61.216,0v-9.342 C221.587,55.174,235.16,55.174,235.972,55.174z M174.757,20.49h61.216v9.342c-5.343,0-55.891,0-61.216,0V20.49z M157.641,47.174 v-9.342c5.341,0,55.89,0,61.215,0v9.342C172.026,47.174,158.454,47.174,157.641,47.174z M157.641,81.858v-9.342 c5.341,0,55.89,0,61.215,0v9.342C212.317,81.858,164.419,81.858,157.641,81.858z M166.027,99.201v-9.342c6.539,0,54.437,0,61.215,0 v9.342C222.505,99.201,175.9,99.201,166.027,99.201z M161.834,133.885v-9.342c6.758,0,53.722,0,61.216,0v9.342 C216.51,133.885,168.611,133.885,161.834,133.885z M161.834,159.228c6.774,0,54.677,0,61.216,0v9.342h-61.216V159.228z M56.703,64.949c0-1.412,1.148-2.561,2.561-2.561h30.651c1.412,0,2.561,1.148,2.561,2.561v9.122H56.703V64.949z M20.028,94.479 c0-6.841,5.565-12.406,12.406-12.406h84.312c6.84,0,12.406,5.565,12.406,12.406v17.986h-13.054v-3.884 c0-5.824-4.738-10.563-10.562-10.563c-5.824,0-10.563,4.738-10.563,10.563v3.884H54.206v-3.884c0-5.824-4.738-10.563-10.563-10.563 c-5.824,0-10.562,4.738-10.562,10.563v3.884H20.028V94.479z M108.097,124.33c0,1.413-1.149,2.563-2.562,2.563 c-1.413,0-2.563-1.149-2.563-2.563v-15.75c0-1.413,1.149-2.563,2.563-2.563c1.413,0,2.562,1.149,2.562,2.563 C108.097,112.502,108.097,114.98,108.097,124.33z M41.082,108.581c0-1.413,1.149-2.563,2.563-2.563 c1.413,0,2.562,1.149,2.562,2.563v15.75c0,1.413-1.149,2.563-2.562,2.563h0c-1.413,0-2.562-1.149-2.562-2.563 C41.082,120.288,41.082,117.883,41.082,108.581z M20.028,120.464h13.054v3.866c0,5.824,4.738,10.563,10.563,10.563 c5.824,0,10.562-4.738,10.562-10.563v-3.866h40.766v3.866c0,5.824,4.738,10.563,10.563,10.563c5.824,0,10.562-4.738,10.562-10.563 v-3.866h13.054v35.7c0,6.84-5.565,12.406-12.406,12.406H32.433c-6.84,0-12.406-5.565-12.406-12.406V120.464z M226.8,235.51H29.2 v-35.47h197.6V235.51z M236.8,192.04c-10.391,0-207.085,0-217.6,0v-15.47c10.916,0,202.125,0,217.6,0V192.04z"/></svg>