<svg xmlns="http://www.w3.org/2000/svg" viewBox="0 0 1200 1200" width="1200" height="1200"><g transform="translate(41.0 972.0) rotate(0.0 566.5 1.0) scale(1.7465431394613926 1.0)"><svg width="648.71" height="2" viewBox="0 0 648.71 2"><path d="M647.71 2H1a1 1 0 0 1 0-2h646.71a1 1 0 0 1 0 2z" fill="#1d0333"/></svg></g><g transform="translate(41.0 289.0) rotate(0.0 540.0 354.0) scale(1.5150494916167263 1.5165503192681145)"><svg width="712.848" height="466.849" viewBox="0 0 712.848 466.849"><path d="M32.171 430.609a232.132 232.132 0 0 0 40.88 4.809 232.187 232.187 0 0 0 48.968-3.817c2.065-8.417 4.929-25.197-3.279-35.861-.817-1.062-1.606-1.9-1.747-2.031-3.443-3.201-9.672-4.973-28.312-8.79-26.099-5.345-73.453-14.353-78.663-11.318-12.21 7.114 18.258 34.363 22.153 57.008z" fill="#e2957a"/><path d="M452.992 197.354c-81.716.488-109.384-20.031-121.865 68.767-.838 5.959-1.892 11.891-3.362 17.726-.321 1.275-3.719 14.91-9.435 27.73-3.657 8.201-13.448 30.159-31.311 45.025-21.113 17.571-46.436 19.355-84 22-8.675.611-34.382 2.033-53.458 3.771a629.745 629.745 0 0 0-20.542 2.229 813.722 813.722 0 0 0-15 2 193.788 193.788 0 0 1 4 30c.411 7.571.347 14.605 0 21 31.556 5.519 58.47 8.317 78.874 9.84 61.755 4.609 85.222-.877 102.199-7.214 0 0 12.536-4.679 25.249-12.023 41.608-24.037 90.891-111.138 128.651-230.851z" fill="#cc9af0"/><path d="M606.123 402.727a521.675 521.675 0 0 1-5.242 48.322c-.06.409-.12.805-.192 1.202 0 0-226.592-.39-234.67 1.35 5.041-6.578 11.321-22.237 13.631-26.6 7.947-15.012 11.689-29.945 14.428-40.88.155-.62.274-1.105.325-1.311a235.916 235.916 0 0 0 5.399-30.023c7.382-64.662-12.913-119.91-26.163-149.019a1073.498 1073.498 0 0 0 94.985-9.619 1073.955 1073.955 0 0 0 93.783-18.035c16.857 34.688 35.133 83.359 42.082 143.079.901 7.782 4.279 38.61 1.634 81.534z" fill="#cc9af0"/><path d="M396.481 305.363a1 1 0 0 1-.985-.835 1268.63 1268.63 0 0 0-10.812-56.466 1 1 0 1 1 1.955-.421 1272.724 1272.724 0 0 1 10.83 56.555 1 1 0 0 1-.988 1.167zm179.151-35.868c-5.156 10.679-9.816 24.598-3.607 33.666 2.08 3.037 3.434 2.487 6.012 6.012 7.77 10.624-.576 20.29 6.012 31.261 3.74 6.229 7.415 4.753 12.023 12.023 4.283 6.757 4.937 14.073 4.809 19.238l7.214 3.607a443.527 443.527 0 0 0-1.202-38.475l-31.261-67.332z" fill="#1d0333"/><path d="M389.268 263.483c1.234 9.37 1.099 21.549-6.012 31.261-6.205 8.475-12.4 7.804-15.63 15.63-5.083 12.314 7.454 20.753 2.405 33.666-3.122 7.983-8.794 7.014-13.226 16.833-4.158 9.212-2.727 19.069-2.405 21.642.96 7.663-2.755 20.336-24.381 42.086 8.847-5.694 18.558-13.177 28-23 30.795-32.039 40.065-69.55 43.273-88.822l-12.024-49.296z" fill="#1d0333"/><path d="M606.123 402.727c-.854 14.717-2.765 32.656-5.422 49.525h-96.007c-5.238-15.74-12.988-23.485-19.238-27.654-10.366-6.916-15.971-3.572-30.059-12.023-14.039-8.423-12.536-14.182-22.845-16.833-10.246-2.635-16.048 1.944-26.452-2.405-5.621-2.349-9.447-5.993-11.699-8.525a235.916 235.916 0 0 0 5.399-30.023c52.747-29.229 127.653 37.165 206.323 47.938z" fill="#a271cc"/><path d="M490.496 190.669c13.749-1.129 14.507-1.22 31.03-4.136 20.44-3.607 33.666-8.416 54.332-12.967 16.515-3.637 33.957-1.881 46.624 9.322l.041.037c25.249 24.047 16.825 85.357 52.903 128.651 18.035 21.642 10.821 44.487 20.44 57.713 10.513 14.455 15.63 27.654 16.833 46.891.709 11.336-1.192 18.884-4.048 24.427 0 0-2.742 4.824-6.773 9.239-50.499 55.308-188.768-40.88-228.446-54.106 1.19.397 2.166-2.089 3.607-3.607 9.14-9.624 14.135-18.787 15.63-21.642 6.063-11.575 8.538-22.449 9.619-30.059a1894.133 1894.133 0 0 0 119.033 37.273 572.81 572.81 0 0 0-18.035-51.701 573.29 573.29 0 0 0-37.273-75.748c-5.671 5.063-18.693 15.072-33.666 13.226-22.834-2.815-44.242-32.468-41.851-72.813z" fill="#cc9af0"/><path d="M634.546 384.718a1 1 0 0 1-.353-.065 1580.35 1580.35 0 0 0-46.862-16.822 1583.245 1583.245 0 0 0-85.312-26.435 1 1 0 0 1 .537-1.926 1584.27 1584.27 0 0 1 85.42 26.468 1579.466 1579.466 0 0 1 46.921 16.844 1 1 0 0 1-.351 1.936z" fill="#1d0333"/><path d="M618.917 378.706a.999.999 0 0 1-.441-1.897 43.3 43.3 0 0 1 11.077-3.692 43.291 43.291 0 0 1 15.999 0 1 1 0 1 1-.366 1.966 41.311 41.311 0 0 0-15.263 0 41.26 41.26 0 0 0-10.565 3.522 1.025 1.025 0 0 1-.441.101zm26.452 87.649c-.044 0-.089-.003-.134-.009a268.401 268.401 0 0 1-37.489-7.783c-22.116-6.268-36.532-13.47-68.117-29.248-5.92-2.957-12.448-6.218-19.749-9.834A4067.746 4067.746 0 0 0 473 396.642a1 1 0 0 1 .864-1.804 4063.761 4063.761 0 0 1 46.903 22.85c7.303 3.617 13.833 6.879 19.755 9.837 31.471 15.721 45.834 22.896 67.769 29.113a266.226 266.226 0 0 0 37.208 7.724 1 1 0 0 1-.13 1.993z" fill="#1d0333"/><path d="M621.32 378.706c-.425 0-.82-.274-.954-.701a594.7 594.7 0 0 0-24.006-63.617 594.77 594.77 0 0 0-24.007-48.013 1 1 0 1 1 1.746-.975 596.643 596.643 0 0 1 24.088 48.175 596.33 596.33 0 0 1 24.087 63.832 1 1 0 0 1-.954 1.299z" fill="#1d0333"/><path d="M402.909 212.189c-4.001-.186-16.594-1.137-19.021-7.483-2.677-6.998 7.364-19.627 26.82-29.73a60.735 60.735 0 0 1 5.923-11.578c17.836-27.185 59.993-42.564 93.478-28.968 5.7 2.315 15.339 7.17 25.041 17.68 1.69.411 18.089 4.63 21.32 16.9.763 2.898 1.816 10.134-8.494 23.536-21.894 28.459-57.451 35.872-60.811 36.526-41.104 7.998-74.392-10.8-84.256-16.883z" fill="#cc9af0"/><g fill="#1d0333"><path d="M471.915 234.255a1 1 0 0 1-.747-1.665c9.391-10.566 19.892-19.17 31.211-25.573.583-.33 1.414-.793 2.45-1.37 8.181-4.56 29.912-16.672 43.793-26.921 2.078-1.535 6.945-5.128 6.849-9.697-.064-3.062-2.318-5.608-4.198-7.205a1.001 1.001 0 0 1 1.295-1.525c3.144 2.671 4.839 5.675 4.903 8.687.117 5.604-5.333 9.629-7.662 11.348-13.984 10.325-35.796 22.482-44.007 27.059a560.503 560.503 0 0 0-2.439 1.364c-11.127 6.294-21.456 14.76-30.701 25.161a.99.99 0 0 1-.747.337zm-24.441-2.014a.997.997 0 0 1-.583-.188 88.277 88.277 0 0 0-11.585-7.037c-6.969-3.531-12.889-5.361-25.859-9.37-3.089-.955-6.573-2.032-10.56-3.283l-.222-.07c-11.386-3.573-16.583-5.204-17.238-9.693-.681-4.663 2.965-8.658 4.099-9.771a1 1 0 1 1 1.401 1.427c-.964.947-4.066 4.325-3.522 8.055.475 3.247 5.616 4.86 15.859 8.074l.222.07c3.983 1.25 7.465 2.326 10.552 3.28 13.081 4.044 19.052 5.889 26.172 9.497a90.414 90.414 0 0 1 11.848 7.197 1 1 0 0 1-.584 1.812zm-22.883 67.361a.999.999 0 0 1-.148-1.989c2.417-.365 4.388-1.248 5.859-2.622 2.472-2.311 2.588-5.089 2.748-8.934.129-3.106.276-6.626 1.771-10.699 1.453-3.959 3.235-5.768 5.299-7.863 1.792-1.818 3.822-3.879 6.307-7.911 3.179-5.157 5.452-10.888 6.755-17.033a1 1 0 0 1 1.957.415c-1.351 6.371-3.709 12.315-7.009 17.667-2.604 4.225-4.811 6.465-6.585 8.265-2.057 2.088-3.542 3.596-4.846 7.149-1.387 3.78-1.527 7.134-1.65 10.094-.167 3.993-.311 7.441-3.381 10.312-1.772 1.656-4.102 2.712-6.926 3.139-.051.007-.101.01-.151.01zm78.98-2.424a1 1 0 0 1-.916-1.4c3.801-8.71 4.348-15.461 1.626-20.065-1.695-2.867-4.297-4.409-6.813-5.899-2.913-1.726-5.665-3.356-6.242-6.784-.554-3.291 1.346-5.797 3.022-8.009 1.453-1.917 2.708-3.572 2.333-5.412-.678-3.334-6.539-6.025-16.949-7.78a1 1 0 1 1 .333-1.972c11.618 1.959 17.694 5.019 18.576 9.354.554 2.726-1.1 4.908-2.7 7.018-1.571 2.072-3.055 4.029-2.644 6.468.423 2.513 2.57 3.785 5.289 5.396 2.606 1.544 5.56 3.293 7.516 6.602 3.067 5.188 2.558 12.55-1.515 21.883a.997.997 0 0 1-.916.6z"/><path d="M492.813 215.104c14.774-8.347 27.109-12.644 35.783-15.032 6.852-1.887 12.386-2.831 19.752-7.126 8.952-5.22 10.758-9.614 17.729-14.154 5.542-3.61 14.333-7.302 28.251-6.899a288.165 288.165 0 0 0-37.854-2.884c-.969 2.555-2.963 7.046-7.265 11.136-3.568 3.391-7.595 6.023-10.018 6.575-15.461 9.461-30.919 18.922-46.378 28.384zm-63.035-21.758c-1.303-1.746-3.345-5.055-3.238-9.218.185-7.202 6.7-13.128 12.023-15.63 4.546-2.137 14.777-4.857 16.702-5.938.12-.068.867-.494 1.94-.953a17.55 17.55 0 0 1 1.431-.539c1.819-.599 2.726-.905 6.719-.824 5.842.118 8.702-10.647 15.291-10.983 3.894-.198 7.097 3.349 8.416 4.809 4.949 5.48 3.137 11.362 7.214 13.226 3.043 1.391 5.598-1.267 8.008.488 2.27 1.653 2.403 5.356 2.162 8.223l-27.097 27.341-40.243-2.607a21582.32 21582.32 0 0 0-9.328-7.395z"/></g><path d="M492.297 189.743a122.377 122.377 0 0 0-16.111 17.603 120.882 120.882 0 0 0-13.178 22.099c-3.631-6.998-9.426-16.003-18.576-24.48a88.632 88.632 0 0 0-10.653-8.453c1.9-1.022 3.8-2.056 5.687-3.078-.12-7.31-.733-13.166-1.299-17.266-.457-3.366-1.034-7.25-2.068-14.068-.325-2.128-.697-4.533-1.118-7.298l-.144-.974c-.24-1.623-.469-3.234-.697-4.858-.649-4.352-1.275-8.717-1.899-13.069 0 0-.565-3.86-1.059-7.19-.865-5.771-3.066-16.881-9.45-39.569 4.636 10.232 15.775 15.92 26.632 13.695 10.519-2.156 18.397-11.255 19.057-22.111a329.24 329.24 0 0 0 1.779 22.003c.557 4.868.793 5.688 3.078 22.147.781 5.627 1.936 13.923 3.138 22.568.854 6.12 1.731 12.42 2.525 18.059 1.431 10.34 2.585 18.504 2.705 19.43 3.884 1.6 7.767 3.211 11.651 4.81z" fill="#e2957a"/><path d="M463.001 230.445a1 1 0 0 1-.891-1.452c5.543-10.937 12.148-21.123 19.634-30.277 7.614-9.311 15.356-16.588 19.515-20.498a258.133 258.133 0 0 1 11.02-9.78 1 1 0 0 1 1.284 1.534 256.178 256.178 0 0 0-10.934 9.704c-4.126 3.878-11.806 11.097-19.337 20.307-7.394 9.042-13.92 19.107-19.398 29.915a1 1 0 0 1-.893.547z" fill="#1d0333"/><path d="M466.91 243.307a1 1 0 0 1-.96-.721c-3.518-12.113-9.783-23.381-18.12-32.587a82.204 82.204 0 0 0-21.065-16.697 1 1 0 0 1 .97-1.749 84.177 84.177 0 0 1 21.577 17.103c8.539 9.429 14.956 20.969 18.558 33.372a1 1 0 0 1-.96 1.279z" fill="#1d0333"/><path d="M417.21 144.691c-12.468.036-21.642-8.861-22.628-9.823-5.254-5.242-7.779-11.531-8.958-19.442-.589-3.956-.842-8.308-.926-13.154-.096-4.34-.036-9.078.012-14.248.036-2.886.06-5.567.108-8.068.012-1.323.036-2.597.072-3.824.349-12.889 1.443-20.668 6.228-27.606 8.717-12.601 26.776-22.676 44.595-18.083 23.758 6.12 30.047 34.014 30.828 37.718 7.372 35.17-22.506 76.446-49.331 76.53z" fill="#e2957a"/><path d="M468.382 94.879c-1.292-7.786-4.757-21.47-15.302-34.285a69.857 69.857 0 0 0-11.848-11.327 154.485 154.485 0 0 1-35.512 11.457 154.243 154.243 0 0 1-36.164 2.661c.282-5.473 1.401-17.267 7.352-29.181 2.367-4.746 5.506-9.524 9.665-13.911a51 51 0 0 1 2.53-2.52C412.94-4.381 456-4.968 466.208 11.257c2.748 4.355 2.867 9.546 2.172 14.118 7.102-1.151 10.882.424 13.032 2.172 9.819 7.983 4.346 34.687-13.03 67.332z" fill="#1d0333"/><path d="M452.495 69.034a60.184 60.184 0 0 1 12.559-13.328c5.584-4.348 12.062-9.393 16.539-7.192 3.764 1.85 4.808 8.178 4.172 12.608-1.881 13.109-20.509 23.823-28.475 18.939-1.369-.84-4.25-3.26-4.795-11.027z" fill="#e2957a"/><path d="M468.46 73.581a1 1 0 0 1-.319-1.948c3.005-1.01 4.764-2.78 5.408-4.1.254-.521.347-1.001.247-1.285-.346-.983-3.382-2.075-7.305-.907a1 1 0 0 1-1.193-1.378c.783-1.69 3.122-5.82 7.933-7.658a13.657 13.657 0 0 1 5.274-.881 1 1 0 0 1-.055 2 11.605 11.605 0 0 0-4.505.75c-2.842 1.086-4.688 3.125-5.784 4.769 3.849-.508 6.865.777 7.521 2.642.286.813.169 1.79-.336 2.826-1.064 2.18-3.52 4.094-6.568 5.118a1.013 1.013 0 0 1-.318.052zm-15.36 47.905c-.108 4.352-1.202 7.454-2.332 11.098-1.755 5.687-1.094 4.677-2.344 8.356-2.165 6.36-3.247 9.547-5.82 11.278-.854.577-3.306 2.008-7.707 1.467-.325-2.128-.697-4.533-1.118-7.298l-.144-.974c-.24-1.623-.469-3.234-.697-4.858 4.978-2.946 7.948-6.204 9.811-8.873 5.062-7.238 8.429-14.332 9.847-13.827.589.204.552 1.683.504 3.631z" fill="#1d0333"/><path d="M438.035 86.293c-1.082 1.912-3.92 1.226-8.5 1.96-.589.096-1.142.204-1.684.325-.529.132-1.046.252-1.527.397-5.158 1.443-7.683 3.667-10.749 2.092-.481-.252-1.178-.589-1.551-1.226a1.792 1.792 0 0 1-.204-.433c-.746-2.284 2.694-6.144 7.166-8.344 1.01-.505 2.08-.914 3.162-1.202 5.399-1.467 12.433-.18 13.923 3.391.06.143.697 1.73-.036 3.04zm-35.697 6.806c-.805 1.395-2.777 1.07-5.928 1.479-.301.036-.601.084-.926.132a24.49 24.49 0 0 0-2.585.577c-4.16 1.178-6.204 2.946-8.657 1.719-.312-.156-.745-.373-1.07-.709a1.721 1.721 0 0 1-.349-.589c-.577-1.816 2.212-4.881 5.819-6.649a13.43 13.43 0 0 1 2.549-.974c4.353-1.19 10.016-.216 11.194 2.609.049.12.541 1.371-.047 2.405zm15.643 18.697c2.853-2.175 4.122-4.25 5.614-3.811 1.067.314 1.514 1.698 1.622 2.034 1.154 3.573-1.96 9.655-6.721 10.351-3.742.547-7.845-2.327-7.673-4.197.137-1.496 2.895-1.127 7.158-4.377z" fill="#fff"/><path d="M404.699 87.422c-1.061 4.334-2.611 8.566-4.491 12.613-.457 1.011-.941 2.019-1.319 2.998-.179.473-.331.996-.307 1.279.006.151.039.14.06.171.025.023.133.072.312.091.768.066 1.862-.243 2.835-.589a34.533 34.533 0 0 0 2.977-1.253l.005-.002a1 1 0 0 1 .848 1.812l-.041.018a36.781 36.781 0 0 1-3.21 1.184c-.556.166-1.117.324-1.716.43-.6.102-1.216.193-1.957.083-.364-.063-.811-.195-1.191-.558-.19-.172-.318-.414-.43-.643-.066-.229-.136-.487-.12-.681.014-.832.277-1.37.493-1.924.47-1.071.995-2.04 1.495-3.029 2.034-3.912 3.733-7.977 4.974-12.213a.405.405 0 0 1 .783.213zM440.846 75.2c-.778 1.113-5.335-2.405-11.514-3.462-8.797-1.505-15.083 2.934-16.331.865-.684-1.134.678-3.473 2.145-4.628.449-.353 1.32-.917 3.387-1.242 2.493-.392 3.781.028 6.428.255 5.571.478 6.462-.814 9.144.489 1.51.734 2.778 1.897 3.499 2.559 1.492 1.368 2.12 2.379 2.415 2.906.672 1.202 1.073 1.906.827 2.258zm-43.354.525c-.685 1.226-2.838.312-6.048.938-2.982.589-5.182 2.164-6.625 3.294.012-1.323.036-2.597.072-3.824.697-.601 1.659-1.262 3.006-1.96 2.874-1.479 6.649-3.427 8.549-1.804.373.326 1.13 1.168 1.046 3.356z" fill="#1d0333"/><ellipse cx="437.102" cy="99.77" fill="#bf7960" rx="10.22" ry="6.613" transform="matrix(.9389 -.3442 .3442 .9389 -7.6298 156.5658)"/><path d="M385.626 115.429c5.084-1.992 8.191-6.23 6.962-9.583-.94-2.563-4.136-3.875-7.893-3.573.087 4.847.338 9.199.931 13.156z" fill="#bf7960"/><path d="M396.41 94.578c-.301.036-.601.084-.926.132a24.49 24.49 0 0 0-2.585.577c-4.16 1.178-6.204 2.946-8.657 1.719-.312-.156-.745-.373-1.07-.709.572-1.092 2.027-3.466 4.893-4.749.488-.219 4.978-2.23 7.214 0 .939.935 1.108 2.247 1.131 3.03zm31.441-6c-.529.132-1.046.252-1.527.397-5.158 1.443-7.683 3.667-10.749 2.092-.481-.252-1.178-.589-1.551-1.226.571-1.052 2.577-4.422 6.505-5.507 1.951-.539 5.965-.953 7.214 1.202.557.961.392 2.136.108 3.042z" fill="#1d0333"/><path d="M501.086 344.04c-4.524-2.272-42.733-21.324-72.506-29.424-9.226-2.51-20.116-4.64-32.646-2.251-5.944 1.133-10.285 2.911-11.893 3.604-11.123 4.791-17.86 12.139-21.879 16.659-18.033 20.281-39.563 44.495-34.214 51.09 1.735 2.139 5.639 1.612 8.416 1.202 25.865-3.815 29.063-38.003 53.94-43.286 14.715-3.125 27.9 5.797 29.269 6.754 9.235 6.457 13.17 15.253 14.635 19.137a30.57 30.57 0 0 0 5.629 6.754c5.306 4.748 10.653 6.058 27.583 10.64 2.234.604 6.958 1.885 13.226 3.607a87.748 87.748 0 0 0 13.226-20.44 87.752 87.752 0 0 0 7.214-24.046z" fill="#e2957a"/><path d="M383.551 330.377c-7.905 4.842-12.097 18.746-6.754 28.143 2.496 4.391 6.461 6.719 9.006 7.88.32 1.557 1.128 4.294 3.377 6.754 5.015 5.485 12.636 4.617 13.509 4.503 2.335 1.523 5.839 3.274 10.132 3.377 16.191.391 31.941-22.901 27.017-33.772-1.189-2.625-3.36-3.844-19.137-9.006-31.135-10.185-34.469-9.522-37.15-7.879z" fill="#e2957a"/><path d="M385.802 367.4a.981.981 0 0 1-.331-.057c-3.487-1.223-6.376-3.291-8.355-5.98-4.169-5.668-3.125-12.192-2.434-16.509.304-1.895 3.344-18.635 16.412-23.3 2.239-.799 4.62-1.193 7.096-1.184.552.003.998.453.995 1.005s-.444 1.003-1.005.995c-2.252-.012-4.395.347-6.413 1.068-11.984 4.278-14.824 19.957-15.109 21.731-.639 3.99-1.604 10.016 2.07 15.009 1.739 2.363 4.3 4.188 7.406 5.278a1.001 1.001 0 0 1-.332 1.944z" fill="#1d0333"/><path d="M401.149 378.712c-3.302 0-8.818-.709-12.701-4.876-1.604-1.721-2.819-4.138-3.613-7.184-2.741-10.515.212-25.675 11.086-33.058 2.588-1.757 5.534-3.02 8.756-3.755a1 1 0 1 1 .444 1.95c-2.979.679-5.696 1.843-8.077 3.459-10.115 6.868-12.842 21.046-10.273 30.899.709 2.722 1.766 4.85 3.141 6.325 4.029 4.324 10.228 4.369 12.705 4.187a1.005 1.005 0 0 1 1.07.924 1 1 0 0 1-.925 1.07 21.19 21.19 0 0 1-1.613.059z" fill="#1d0333"/><path d="M412.352 381.901c-2.955 0-5.658-.768-7.962-2.282-8.349-5.486-7.251-18.393-7.201-18.94 1.062-11.442 10.178-17.579 11.995-18.693a1 1 0 1 1 1.045 1.705c-1.674 1.027-10.076 6.68-11.05 17.173-.046.498-1.048 12.25 6.308 17.084 2.88 1.893 6.533 2.422 10.562 1.531 6.535-1.444 13.652-6.576 17.308-12.479.547-.884 5.261-8.741 2.326-12.351-2.071-2.546-7.157-2.018-10.108-.829-7.328 2.952-8.375 12.584-8.384 12.681a1 1 0 0 1-1.991-.2c.045-.445 1.189-10.938 9.627-14.336 3.405-1.372 9.521-2.126 12.407 1.422 3.635 4.472-.747 12.356-2.177 14.666-3.917 6.326-11.556 11.828-18.576 13.38a19.213 19.213 0 0 1-4.129.468zm61.08 14.84a1 1 0 0 1-.718-1.697 108.16 108.16 0 0 0 15.487-20.253 107.52 107.52 0 0 0 4.045-7.5 109.073 109.073 0 0 0 9.06-27.05 1 1 0 1 1 1.963.383 111.09 111.09 0 0 1-9.226 27.547 109.804 109.804 0 0 1-4.121 7.639 110.197 110.197 0 0 1-15.773 20.627.99.99 0 0 1-.717.304z" fill="#1d0333"/><path d="M117.019 397.602c-1.563-3.487-2.001-7-9.1-11.479-2.522-1.591-5.406-3.082-12.023-4.809-11.622-3.033-13.912-1.636-22.845-3.607-15.395-3.397-23.872-10.916-27.654-7.214-.695.68-.915 1.429-1.202 2.405-1.794 6.093 3.38 13.321 7.214 16.833 12.075 11.06 30.465 3.162 33.666 10.821 1.936 4.634-3.612 10.321.141 16.055 1.029 1.572 2.276 2.389 3.466 3.183 4.201 2.802 13.4 6.232 21.642 1.202 7.084-4.325 8.871-14.899 6.695-23.39zM2.769 384.076c5.074 10.395 32.657 10.123 34.505 4.377 1.293-4.021-9.576-12.08-19.967-14.215-2.393-.492-11.384-2.339-14.431 2.064-1.55 2.239-1.189 5.559-.107 7.774z" fill="#e2957a"/><path d="M24.343 393.411c-8.172 0-19.211-2.213-22.473-8.896-1.213-2.486-1.626-6.166.184-8.782 2.271-3.282 7.47-4.115 15.455-2.474 8.914 1.832 17.564 7.622 20.051 11.881.784 1.342 1.008 2.56.667 3.62-1.12 3.48-8.035 4.342-10.956 4.551-.916.065-1.9.1-2.928.1zm-20.676-9.774c2.866 5.872 14.227 8.339 23.461 7.678 5.749-.411 8.796-1.931 9.194-3.169.199-.619-.156-1.429-.49-2-2.223-3.807-10.46-9.232-18.726-10.93-8.875-1.824-12.189-.107-13.408 1.653-1.343 1.942-.957 4.87-.031 6.768z" fill="#1d0333"/><path d="M2.044 399.742c5.481 10.733 34.257 9.464 36.139 3.213 1.288-4.278-9.634-12.178-19.85-14.356-2.33-.497-12.61-2.688-16.12 2.409-1.71 2.482-1.468 6.191-.169 8.734z" fill="#e2957a"/><path d="M22.766 408.744c-8.943 0-18.522-2.495-21.613-8.548-1.33-2.604-1.823-6.767.235-9.756 1.774-2.576 6.189-5.156 17.152-2.82 7.987 1.703 17.084 7.114 19.866 11.816.826 1.397 1.073 2.678.733 3.806-1.211 4.023-9.614 5.084-12.161 5.314a46.792 46.792 0 0 1-4.212.188zm-11.879-20.033c-3.838 0-6.544.967-7.851 2.864-1.523 2.211-1.204 5.553-.102 7.712 3.022 5.918 14.29 8.141 23.866 7.278 6.534-.589 9.984-2.433 10.425-3.898.214-.711-.175-1.595-.54-2.211-2.216-3.746-10.384-9.135-18.561-10.879-2.719-.579-5.146-.866-7.237-.866z" fill="#1d0333"/><path d="M2.71 412.906c4.947 10.291 32.157 9.868 34.012 4.154 1.298-3.999-9.379-11.939-19.617-14.001-2.358-.475-11.216-2.259-14.246 2.129-1.542 2.231-1.204 5.524-.149 7.718z" fill="#e2957a"/><path d="M23.541 422.069c-9.127 0-18.89-2.818-21.732-8.73-1.184-2.463-1.572-6.114.228-8.72 2.259-3.271 7.396-4.126 15.266-2.541 8.741 1.76 17.246 7.445 19.705 11.651.789 1.348 1.012 2.573.666 3.64-1.153 3.552-8.244 4.404-11.239 4.605-.952.063-1.92.095-2.894.095zm-19.93-9.597c2.731 5.682 13.73 8.108 22.688 7.505 5.917-.398 9.057-1.952 9.471-3.227.203-.624-.155-1.439-.49-2.013-2.194-3.752-10.279-9.069-18.373-10.7-8.737-1.76-12.014-.038-13.226 1.717-1.336 1.937-.973 4.84-.07 6.718z" fill="#1d0333"/><path d="M5.928 424.884c4.476 9.311 29.095 8.929 30.773 3.758 1.174-3.618-8.486-10.802-17.748-12.668-2.133-.43-10.148-2.044-12.889 1.926-1.396 2.02-1.09 5-.136 6.984z" fill="#e2957a"/><path d="M24.692 433.273c-8.07 0-16.973-2.355-19.666-7.956-1.083-2.253-1.437-5.596.214-7.985 2.067-2.994 6.746-3.781 13.909-2.338 7.19 1.448 15.383 6.296 17.892 10.587.728 1.244.933 2.378.611 3.37-1.061 3.269-7.523 4.049-10.252 4.232-.885.06-1.792.09-2.708.09zm-17.863-8.822c2.454 5.104 12.358 7.28 20.437 6.737 5.308-.357 8.119-1.73 8.484-2.854.137-.421-.014-1.023-.435-1.744-1.975-3.378-9.261-8.165-16.56-9.635-7.853-1.581-10.789-.05-11.869 1.514-1.135 1.643-.888 4.253-.057 5.982zm83.054-7.27a.99.99 0 0 1-.569-.179 38.992 38.992 0 0 1-14.546-18.988c-4.002.326-16.63.507-25.294-8.806-2.908-3.127-5.008-6.904-6.241-11.228a1 1 0 1 1 1.923-.549c1.146 4.017 3.091 7.521 5.783 10.414 8.717 9.371 21.858 8.395 24.404 8.104.466-.054.912.229 1.062.677a37.051 37.051 0 0 0 4.683 9.366 37.064 37.064 0 0 0 9.367 9.367 1 1 0 0 1-.572 1.822z" fill="#1d0333"/><path d="M430.372 30.806c-12.576 9.339-21.34 10.013-27.15 8.688-8.308-1.89-12-8.167-19.548-7.602-2.476.185-4.735 1.053-6.766 2.313 2.367-4.746 5.506-9.524 9.665-13.911 5.984.326 10.263 2.02 13.39 3.996 6.299 3.975 9.122 9.872 16.29 10.86 5.594.771 10.655-1.89 14.119-4.344z" fill="#eedcff"/><path d="M118.02 438.602a1 1 0 0 1-.997-1.087c.775-8.903.775-17.929 0-26.827a155.076 155.076 0 0 0-3.975-23.846 1.001 1.001 0 0 1 1.941-.483 157.093 157.093 0 0 1 4.025 24.154c.785 9.013.785 18.156 0 27.173a1 1 0 0 1-.994.916z" fill="#1d0333"/></svg></g><g transform="translate(51.0 817.0) rotate(0.0 57.5 79.5) translate(0.0 0.0) scale(1.5637110262023577 1.5702773168997393)"><svg width="73.543" height="98.709" viewBox="0 0 73.543 98.709"><path d="m4.263 8.527 6.395 92.729h52.227L69.28 8.527H4.263z" fill="#fff"/><g fill="#1d0333"><path d="M62.885 102.255H10.658a1 1 0 0 1-.998-.931L3.265 8.596a.999.999 0 0 1 .998-1.069H69.28a.999.999 0 0 1 .998 1.069l-6.396 92.729a.998.998 0 0 1-.997.93zm-51.293-2h50.359l6.258-90.729H5.335z"/><path d="M71.267 14.922H2.277A2.276 2.276 0 0 1 0 12.645V6.54a2.277 2.277 0 0 1 2.277-2.277h68.99a2.277 2.277 0 0 1 2.277 2.277v6.105a2.278 2.278 0 0 1-2.277 2.277z"/><path d="M63.418 7.461H10.126V6.205A6.205 6.205 0 0 1 16.331 0h40.882a6.205 6.205 0 0 1 6.205 6.205z"/></g></svg></g><g transform="translate(40.0 848.0) rotate(0.0 83.0 48.5) scale(1.5187279281257433 1.5209244712043526)"><svg width="109.302" height="63.777" viewBox="0 0 109.302 63.777"><path d="M107.919 16.631c-2.47-1.67-5.406-3.082-12.023-4.809-11.622-3.033-13.912-1.636-22.845-3.607C57.656 4.818 49.179-2.702 45.397 1c-.695.68-.915 1.429-1.202 2.405-1.794 6.093 3.38 13.321 7.214 16.833 12.075 11.06 22.41 3.213 25.61 10.872 1.936 4.634 8.154 11.154 13 16 1 1 2.81 2.207 4 3 4.201 2.802 19.999-29.357 13.9-33.479zM2.769 14.584c5.074 10.395 32.657 10.123 34.505 4.377 1.293-4.021-9.576-12.08-19.967-14.215-2.393-.492-11.384-2.339-14.431 2.063-1.55 2.24-1.189 5.56-.107 7.775z" fill="#e2957a"/><path d="M24.343 23.919c-8.172 0-19.211-2.212-22.473-8.896C.657 12.536.243 8.857 2.054 6.24c2.271-3.283 7.471-4.115 15.455-2.474 8.914 1.832 17.564 7.622 20.051 11.881.784 1.342 1.008 2.56.667 3.62-1.12 3.48-8.035 4.342-10.956 4.551-.916.066-1.9.101-2.928.101zM3.667 14.145c2.866 5.873 14.231 8.34 23.46 7.678 5.75-.411 8.796-1.931 9.194-3.168.199-.619-.156-1.429-.49-2-2.223-3.807-10.46-9.232-18.726-10.93C8.233 3.902 4.918 5.618 3.698 7.379c-1.283 1.854-.987 4.807-.031 6.766z" fill="#1d0333"/><path d="M2.044 30.25c5.481 10.733 34.257 9.464 36.139 3.213 1.288-4.278-9.634-12.178-19.85-14.356-2.33-.497-12.61-2.688-16.12 2.409-1.71 2.482-1.468 6.191-.169 8.734z" fill="#e2957a"/><path d="M22.766 39.253c-8.943 0-18.522-2.495-21.613-8.547-1.33-2.604-1.823-6.767.235-9.756 1.774-2.576 6.191-5.155 17.152-2.82 7.987 1.702 17.084 7.114 19.866 11.816.826 1.397 1.073 2.678.733 3.806-1.211 4.023-9.614 5.084-12.161 5.314a47.167 47.167 0 0 1-4.212.187zM10.887 19.219c-3.838 0-6.544.967-7.851 2.864-1.523 2.211-1.204 5.553-.102 7.712 3.022 5.918 14.297 8.14 23.866 7.278 6.534-.589 9.984-2.434 10.425-3.898.214-.711-.175-1.595-.54-2.211-2.216-3.746-10.384-9.135-18.561-10.879-2.719-.579-5.146-.866-7.237-.866z" fill="#1d0333"/><path d="M2.71 43.414c4.947 10.291 32.157 9.868 34.012 4.154 1.298-3.999-9.379-11.939-19.617-14.001-2.358-.475-11.216-2.259-14.246 2.129-1.542 2.231-1.204 5.525-.149 7.718z" fill="#e2957a"/><path d="M23.541 52.578c-9.127 0-18.89-2.818-21.732-8.73-1.184-2.463-1.572-6.114.228-8.72C4.295 31.855 9.43 31 17.302 32.586c8.741 1.76 17.246 7.445 19.704 11.65.789 1.348 1.012 2.573.666 3.64-1.153 3.552-8.244 4.404-11.239 4.605-.95.065-1.918.097-2.892.097zm-19.93-9.597c2.731 5.682 13.732 8.105 22.688 7.506 5.917-.398 9.057-1.952 9.471-3.228.203-.624-.155-1.439-.49-2.013-2.194-3.752-10.279-9.069-18.373-10.699-8.733-1.76-12.014-.038-13.226 1.717-1.336 1.935-.973 4.838-.07 6.717z" fill="#1d0333"/><path d="M5.928 55.392c4.476 9.311 29.095 8.929 30.773 3.758 1.174-3.618-8.486-10.802-17.748-12.668-2.133-.43-10.148-2.044-12.889 1.926-1.396 2.02-1.09 5-.136 6.984z" fill="#e2957a"/><g fill="#1d0333"><path d="M24.692 63.781c-8.07 0-16.973-2.355-19.666-7.956-1.082-2.252-1.436-5.595.214-7.985 2.068-2.994 6.749-3.78 13.909-2.338 7.19 1.448 15.383 6.296 17.892 10.586.728 1.244.933 2.378.611 3.371-1.061 3.269-7.523 4.049-10.252 4.232-.885.06-1.792.09-2.708.09zM6.829 54.959c2.454 5.104 12.357 7.281 20.437 6.737 5.308-.357 8.119-1.73 8.484-2.854.137-.42-.014-1.023-.435-1.743-1.975-3.377-9.261-8.165-16.56-9.635-7.853-1.581-10.789-.05-11.869 1.514-1.135 1.642-.888 4.252-.057 5.981zm83.054-7.27a.99.99 0 0 1-.569-.179 38.992 38.992 0 0 1-14.546-18.988c-4.002.326-16.628.508-25.294-8.806-2.908-3.127-5.008-6.905-6.241-11.228a1 1 0 1 1 1.923-.548c1.146 4.017 3.091 7.521 5.783 10.414 8.717 9.371 21.856 8.395 24.404 8.104.468-.053.912.229 1.062.677a37.018 37.018 0 0 0 14.05 18.733 1 1 0 0 1-.572 1.821z"/></g></svg></g><g transform="translate(140.0 671.0) rotate(0.0 340.0 152.5) scale(1.5253511111509896 1.5296884952379042)"><svg width="445.799" height="199.387" viewBox="0 0 445.799 199.387"><path d="M434.907 199.387H61.213a13.419 13.419 0 0 1-13.203-11.019l-.33-1.818h397.94c1.216 6.684-3.919 12.837-10.713 12.837z" fill="#1d0333"/><path d="M262.404 187.717H47.679L1 1h214.725z" fill="#fff"/><path d="M262.404 188.717H47.68a1 1 0 0 1-.97-.757L.03 1.243A.998.998 0 0 1 1 0h214.725a1 1 0 0 1 .97.757l46.68 186.717a.998.998 0 0 1-.971 1.243zm-213.943-2h212.662L214.943 2H2.281z" fill="#1d0333"/></svg></g><g transform="translate(198.0 326.0) rotate(0.0 169.0 153.5) scale(1.5306099344735924 1.5328463508770178)"><svg width="220.827" height="200.281" viewBox="0 0 220.827 200.281"><path d="M213.677 168.126h-48.035a6.153 6.153 0 0 0-4.069 1.538l-32.395 28.584c-2.635 2.325-6.783.472-6.81-3.042l-.16-20.977a6.15 6.15 0 0 0-6.15-6.103H7.15a6.15 6.15 0 0 1-6.15-6.15V7.15A6.15 6.15 0 0 1 7.15 1h206.528a6.15 6.15 0 0 1 6.15 6.15v154.827a6.15 6.15 0 0 1-6.151 6.149z" fill="#fff"/><path d="M126.484 200.282a5.127 5.127 0 0 1-2.097-.452 5.048 5.048 0 0 1-3.019-4.617l-.16-20.977a5.163 5.163 0 0 0-5.149-5.111H7.15c-3.942 0-7.15-3.208-7.15-7.15V7.15A7.157 7.157 0 0 1 7.15 0h206.528c3.942 0 7.15 3.207 7.15 7.149v154.827c0 3.942-3.207 7.15-7.15 7.15h-48.035a5.148 5.148 0 0 0-3.407 1.288l-32.395 28.584a5.058 5.058 0 0 1-3.357 1.284zM7.15 2C4.31 2 2 4.31 2 7.15v154.827c0 2.84 2.31 5.15 5.15 5.15h108.91c3.913 0 7.12 3.183 7.149 7.095l.16 20.977c.01 1.248.695 2.297 1.834 2.806s2.378.32 3.314-.506l32.395-28.583a7.147 7.147 0 0 1 4.73-1.789h48.035c2.84 0 5.15-2.31 5.15-5.15V7.15a5.155 5.155 0 0 0-5.15-5.149H7.15z" fill="#1d0333"/><path d="M16.63 26.249h12.023l8.416 10.821 14.428-24.047H62.32l-25.25 40.88-20.44-27.654zm1.203 49.296h12.023l8.416 10.821L52.7 62.319h10.821l-25.249 40.88-20.439-27.654zm0 49.297h12.023l8.416 10.821L52.7 111.616h10.821l-25.249 40.88-20.439-27.654z" fill="#f85572"/><g fill="#1d0333"><path d="M192.173 33.261h-84.664a1 1 0 0 1 0-2h84.664a1 1 0 0 1 0 2zm-103.944 0H73.141a1 1 0 0 1 0-2H88.23a1 1 0 1 1-.001 2zm105.146 49.296h-32.692a1 1 0 0 1 0-2h32.692a1 1 0 0 1 0 2zm-52.81 0H74.343a1 1 0 0 1 0-2h66.222a1 1 0 0 1 0 2zm52.81 49.296h-34.369a1 1 0 0 1 0-2h34.369a1 1 0 0 1 0 2zm-50.295 0h-21.795a1 1 0 0 1 0-2h21.795a1 1 0 0 1 0 2zm-37.721 0H74.343a1 1 0 0 1 0-2h31.015a1 1 0 0 1 .001 2z"/></g></svg></g></svg>